<mxfile host="Electron" agent="Mozilla/5.0 (X11; Linux x86_64) AppleWebKit/537.36 (KHTML, like Gecko) draw.io/26.2.2 Chrome/134.0.6998.178 Electron/35.1.2 Safari/537.36" version="26.2.2">
  <diagram name="Page-1" id="l3m60EIhgYr5t6dh1Ab3">
    <mxGraphModel dx="2185" dy="1529" grid="0" gridSize="10" guides="1" tooltips="1" connect="1" arrows="1" fold="1" page="0" pageScale="1" pageWidth="850" pageHeight="1100" math="0" shadow="0">
      <root>
        <mxCell id="0" />
        <mxCell id="1" parent="0" />
        <mxCell id="lCDzhk1fqNKbVMKusiZE-256" value="" style="rounded=1;whiteSpace=wrap;html=1;" vertex="1" parent="1">
          <mxGeometry x="3433.5" y="772" width="245" height="365" as="geometry" />
        </mxCell>
        <mxCell id="Cm1_plxN0XCDAielUG73-1" value="" style="rounded=1;whiteSpace=wrap;html=1;arcSize=7;" parent="1" vertex="1">
          <mxGeometry x="-115" y="-116" width="627" height="419" as="geometry" />
        </mxCell>
        <mxCell id="Cm1_plxN0XCDAielUG73-3" value="" style="rounded=1;whiteSpace=wrap;html=1;arcSize=7;" parent="1" vertex="1">
          <mxGeometry x="-115" y="-67" width="627" height="370" as="geometry" />
        </mxCell>
        <mxCell id="Cm1_plxN0XCDAielUG73-5" value="&lt;b&gt;&lt;font style=&quot;font-size: 18px;&quot;&gt;Comandera&lt;/font&gt;&lt;/b&gt;" style="text;html=1;align=center;verticalAlign=middle;whiteSpace=wrap;rounded=0;" parent="1" vertex="1">
          <mxGeometry x="59" y="-104.5" width="60" height="30" as="geometry" />
        </mxCell>
        <mxCell id="Cm1_plxN0XCDAielUG73-6" value="Inicio" style="rounded=1;whiteSpace=wrap;html=1;" parent="1" vertex="1">
          <mxGeometry x="362" y="-99.75" width="57" height="20.5" as="geometry" />
        </mxCell>
        <mxCell id="Cm1_plxN0XCDAielUG73-8" value="" style="endArrow=none;html=1;rounded=0;fontSize=12;startSize=8;endSize=8;curved=1;strokeWidth=4;strokeColor=#4E4E4E;" parent="1" edge="1">
          <mxGeometry width="50" height="50" relative="1" as="geometry">
            <mxPoint x="452" y="-95.32" as="sourcePoint" />
            <mxPoint x="485" y="-95.32" as="targetPoint" />
          </mxGeometry>
        </mxCell>
        <mxCell id="Cm1_plxN0XCDAielUG73-9" value="" style="endArrow=none;html=1;rounded=0;fontSize=12;startSize=8;endSize=8;curved=1;strokeWidth=4;strokeColor=#4E4E4E;" parent="1" edge="1">
          <mxGeometry width="50" height="50" relative="1" as="geometry">
            <mxPoint x="452" y="-83.93" as="sourcePoint" />
            <mxPoint x="485" y="-83.93" as="targetPoint" />
          </mxGeometry>
        </mxCell>
        <mxCell id="Cm1_plxN0XCDAielUG73-28" value="&lt;strike&gt;Logo restaurante&lt;/strike&gt;" style="rounded=0;whiteSpace=wrap;html=1;" parent="1" vertex="1">
          <mxGeometry x="-90" y="-105.5" width="106" height="32" as="geometry" />
        </mxCell>
        <mxCell id="Cm1_plxN0XCDAielUG73-29" value="&amp;nbsp; &amp;nbsp; Lunes 22 de abril.&amp;nbsp; &amp;nbsp; &amp;nbsp;10:40AM" style="rounded=1;whiteSpace=wrap;html=1;align=left;" parent="1" vertex="1">
          <mxGeometry x="79" y="-34" width="405" height="24" as="geometry" />
        </mxCell>
        <mxCell id="Cm1_plxN0XCDAielUG73-32" value="" style="group;rotation=90;" parent="1" vertex="1" connectable="0">
          <mxGeometry x="-84" y="-34" width="251" height="265" as="geometry" />
        </mxCell>
        <mxCell id="Cm1_plxN0XCDAielUG73-11" value="" style="rounded=1;whiteSpace=wrap;html=1;" parent="Cm1_plxN0XCDAielUG73-32" vertex="1">
          <mxGeometry width="133" height="265" as="geometry" />
        </mxCell>
        <mxCell id="Cm1_plxN0XCDAielUG73-12" value="&lt;span style=&quot;background-color: transparent; color: light-dark(rgb(0, 0, 0), rgb(255, 255, 255));&quot;&gt;&amp;nbsp; &amp;nbsp; Menu&lt;/span&gt;" style="rounded=1;whiteSpace=wrap;html=1;arcSize=24;align=left;" parent="Cm1_plxN0XCDAielUG73-32" vertex="1">
          <mxGeometry width="133" height="36" as="geometry" />
        </mxCell>
        <mxCell id="Cm1_plxN0XCDAielUG73-13" value="" style="triangle;whiteSpace=wrap;html=1;" parent="Cm1_plxN0XCDAielUG73-32" vertex="1">
          <mxGeometry x="108" y="6" width="16" height="24" as="geometry" />
        </mxCell>
        <mxCell id="Cm1_plxN0XCDAielUG73-19" value="&lt;b&gt;Sopa&lt;/b&gt;" style="text;html=1;align=left;verticalAlign=middle;whiteSpace=wrap;rounded=0;" parent="Cm1_plxN0XCDAielUG73-32" vertex="1">
          <mxGeometry x="13" y="53" width="60" height="30" as="geometry" />
        </mxCell>
        <mxCell id="Cm1_plxN0XCDAielUG73-20" value="&lt;b&gt;Principio&lt;/b&gt;" style="text;html=1;align=left;verticalAlign=middle;whiteSpace=wrap;rounded=0;" parent="Cm1_plxN0XCDAielUG73-32" vertex="1">
          <mxGeometry x="13" y="112" width="60" height="30" as="geometry" />
        </mxCell>
        <mxCell id="Cm1_plxN0XCDAielUG73-21" value="&lt;b&gt;Proteina&lt;/b&gt;" style="text;html=1;align=left;verticalAlign=middle;whiteSpace=wrap;rounded=0;" parent="Cm1_plxN0XCDAielUG73-32" vertex="1">
          <mxGeometry x="13" y="185" width="60" height="30" as="geometry" />
        </mxCell>
        <mxCell id="Cm1_plxN0XCDAielUG73-22" value="&lt;ol&gt;&lt;li&gt;lorem&lt;/li&gt;&lt;li&gt;lorem&lt;/li&gt;&lt;/ol&gt;" style="text;html=1;align=center;verticalAlign=middle;whiteSpace=wrap;rounded=0;" parent="Cm1_plxN0XCDAielUG73-32" vertex="1">
          <mxGeometry x="19" y="76" width="60" height="30" as="geometry" />
        </mxCell>
        <mxCell id="Cm1_plxN0XCDAielUG73-23" value="&lt;ol&gt;&lt;li&gt;lorem&lt;/li&gt;&lt;li&gt;lorem&lt;/li&gt;&lt;li&gt;lorem&lt;/li&gt;&lt;/ol&gt;" style="text;html=1;align=center;verticalAlign=middle;whiteSpace=wrap;rounded=0;" parent="Cm1_plxN0XCDAielUG73-32" vertex="1">
          <mxGeometry x="19" y="141" width="60" height="30" as="geometry" />
        </mxCell>
        <mxCell id="Cm1_plxN0XCDAielUG73-24" value="&lt;ol&gt;&lt;li&gt;lorem&lt;/li&gt;&lt;li&gt;lorem&lt;/li&gt;&lt;li&gt;lorem&lt;/li&gt;&lt;/ol&gt;" style="text;html=1;align=center;verticalAlign=middle;whiteSpace=wrap;rounded=0;" parent="Cm1_plxN0XCDAielUG73-32" vertex="1">
          <mxGeometry x="19" y="213" width="60" height="30" as="geometry" />
        </mxCell>
        <mxCell id="Cm1_plxN0XCDAielUG73-54" value="&lt;b&gt;Pedidos del dia&lt;/b&gt;" style="text;html=1;align=center;verticalAlign=middle;whiteSpace=wrap;rounded=0;" parent="Cm1_plxN0XCDAielUG73-32" vertex="1">
          <mxGeometry x="160" y="135" width="91" height="30" as="geometry" />
        </mxCell>
        <mxCell id="Cm1_plxN0XCDAielUG73-33" value="" style="rounded=1;whiteSpace=wrap;html=1;" parent="1" vertex="1">
          <mxGeometry x="79" y="-13" width="405" height="100" as="geometry" />
        </mxCell>
        <mxCell id="Cm1_plxN0XCDAielUG73-34" value="" style="rounded=0;whiteSpace=wrap;html=1;" parent="1" vertex="1">
          <mxGeometry x="79" y="-13" width="405" height="101" as="geometry" />
        </mxCell>
        <mxCell id="Cm1_plxN0XCDAielUG73-35" value="&lt;div style=&quot;line-height: 100%;&quot;&gt;&lt;font style=&quot;color: rgb(80, 80, 80);&quot;&gt;&lt;span style=&quot;font-size: 29px; background-color: transparent; line-height: 100%;&quot;&gt;&amp;nbsp; &amp;nbsp; &amp;nbsp; 10&lt;/span&gt;&lt;br&gt;&lt;/font&gt;&lt;div&gt;&lt;font style=&quot;font-size: 29px; line-height: 100%; color: rgb(80, 80, 80);&quot;&gt;&amp;nbsp; &amp;nbsp;Ventas&lt;/font&gt;&lt;/div&gt;&lt;/div&gt;" style="rounded=0;whiteSpace=wrap;html=1;align=left;" parent="1" vertex="1">
          <mxGeometry x="79" y="-13" width="141" height="101" as="geometry" />
        </mxCell>
        <mxCell id="Cm1_plxN0XCDAielUG73-36" value="&lt;font style=&quot;font-size: 24px; color: rgb(80, 80, 80);&quot;&gt;&lt;span style=&quot;background-color: transparent; line-height: 29px;&quot;&gt;&amp;nbsp; &amp;nbsp;3 Mesas&lt;/span&gt;&lt;br style=&quot;&quot;&gt;&lt;/font&gt;&lt;div style=&quot;&quot;&gt;&lt;font style=&quot;line-height: 29px; font-size: 24px; color: rgb(80, 80, 80);&quot;&gt;&amp;nbsp; Ocupadas&lt;/font&gt;&lt;/div&gt;" style="rounded=0;whiteSpace=wrap;html=1;align=left;" parent="1" vertex="1">
          <mxGeometry x="220" y="-13" width="141" height="101" as="geometry" />
        </mxCell>
        <mxCell id="Cm1_plxN0XCDAielUG73-37" value="&amp;nbsp; Top productos" style="swimlane;fontStyle=0;childLayout=stackLayout;horizontal=1;startSize=30;horizontalStack=0;resizeParent=1;resizeParentMax=0;resizeLast=0;collapsible=1;marginBottom=0;whiteSpace=wrap;html=1;align=left;movable=1;resizable=1;rotatable=1;deletable=1;editable=1;locked=0;connectable=1;" parent="1" vertex="1">
          <mxGeometry x="361" y="-13" width="123" height="101" as="geometry">
            <mxRectangle x="362" y="-13" width="117" height="30" as="alternateBounds" />
          </mxGeometry>
        </mxCell>
        <mxCell id="Cm1_plxN0XCDAielUG73-38" value="1. Almuerzo" style="text;strokeColor=none;fillColor=none;align=left;verticalAlign=middle;spacingLeft=4;spacingRight=4;overflow=hidden;points=[[0,0.5],[1,0.5]];portConstraint=eastwest;rotatable=0;whiteSpace=wrap;html=1;" parent="Cm1_plxN0XCDAielUG73-37" vertex="1">
          <mxGeometry y="30" width="123" height="18" as="geometry" />
        </mxCell>
        <mxCell id="Cm1_plxN0XCDAielUG73-41" value="2. Desayuno" style="text;strokeColor=none;fillColor=none;align=left;verticalAlign=middle;spacingLeft=4;spacingRight=4;overflow=hidden;points=[[0,0.5],[1,0.5]];portConstraint=eastwest;rotatable=0;whiteSpace=wrap;html=1;" parent="Cm1_plxN0XCDAielUG73-37" vertex="1">
          <mxGeometry y="48" width="123" height="18" as="geometry" />
        </mxCell>
        <mxCell id="Cm1_plxN0XCDAielUG73-42" value="3. Jugos" style="text;strokeColor=none;fillColor=none;align=left;verticalAlign=middle;spacingLeft=4;spacingRight=4;overflow=hidden;points=[[0,0.5],[1,0.5]];portConstraint=eastwest;rotatable=0;whiteSpace=wrap;html=1;" parent="Cm1_plxN0XCDAielUG73-37" vertex="1">
          <mxGeometry y="66" width="123" height="18" as="geometry" />
        </mxCell>
        <mxCell id="Cm1_plxN0XCDAielUG73-43" value="4. Almojabanas" style="text;strokeColor=none;fillColor=none;align=left;verticalAlign=middle;spacingLeft=4;spacingRight=4;overflow=hidden;points=[[0,0.5],[1,0.5]];portConstraint=eastwest;rotatable=0;whiteSpace=wrap;html=1;" parent="Cm1_plxN0XCDAielUG73-37" vertex="1">
          <mxGeometry y="84" width="123" height="17" as="geometry" />
        </mxCell>
        <mxCell id="Cm1_plxN0XCDAielUG73-44" value="" style="triangle;whiteSpace=wrap;html=1;" parent="1" vertex="1">
          <mxGeometry x="466" y="-6" width="12" height="17" as="geometry" />
        </mxCell>
        <mxCell id="Cm1_plxN0XCDAielUG73-53" value="" style="group" parent="1" vertex="1" connectable="0">
          <mxGeometry x="79" y="131" width="405" height="217" as="geometry" />
        </mxCell>
        <mxCell id="Cm1_plxN0XCDAielUG73-51" value="" style="rounded=1;whiteSpace=wrap;html=1;arcSize=6;" parent="Cm1_plxN0XCDAielUG73-53" vertex="1">
          <mxGeometry width="405" height="217" as="geometry" />
        </mxCell>
        <mxCell id="Cm1_plxN0XCDAielUG73-52" value="&amp;nbsp; &amp;nbsp; &amp;nbsp; &amp;nbsp; &amp;nbsp;Mesa&amp;nbsp; &amp;nbsp; &amp;nbsp; &amp;nbsp; &amp;nbsp; &amp;nbsp; &amp;nbsp; &amp;nbsp; &amp;nbsp;Estado&amp;nbsp; &amp;nbsp; &amp;nbsp; &amp;nbsp; &amp;nbsp; &amp;nbsp; &amp;nbsp; &amp;nbsp; &amp;nbsp; &amp;nbsp;Comensales&amp;nbsp; &amp;nbsp; &amp;nbsp; &amp;nbsp; &amp;nbsp; &amp;nbsp; &amp;nbsp; &amp;nbsp;Detalle&amp;nbsp; &amp;nbsp;" style="rounded=1;whiteSpace=wrap;html=1;arcSize=6;align=left;" parent="Cm1_plxN0XCDAielUG73-53" vertex="1">
          <mxGeometry width="405" height="26.778723404255317" as="geometry" />
        </mxCell>
        <mxCell id="Cm1_plxN0XCDAielUG73-55" value="" style="endArrow=none;html=1;rounded=0;fontSize=12;startSize=8;endSize=8;curved=1;entryX=0.25;entryY=0;entryDx=0;entryDy=0;exitX=0.25;exitY=1;exitDx=0;exitDy=0;" parent="Cm1_plxN0XCDAielUG73-53" source="Cm1_plxN0XCDAielUG73-51" target="Cm1_plxN0XCDAielUG73-52" edge="1">
          <mxGeometry width="50" height="50" relative="1" as="geometry">
            <mxPoint x="107" y="92" as="sourcePoint" />
            <mxPoint x="157" y="42" as="targetPoint" />
          </mxGeometry>
        </mxCell>
        <mxCell id="Cm1_plxN0XCDAielUG73-56" value="" style="endArrow=none;html=1;rounded=0;fontSize=12;startSize=8;endSize=8;curved=1;entryX=0.5;entryY=0;entryDx=0;entryDy=0;" parent="Cm1_plxN0XCDAielUG73-53" target="Cm1_plxN0XCDAielUG73-52" edge="1">
          <mxGeometry width="50" height="50" relative="1" as="geometry">
            <mxPoint x="203" y="219" as="sourcePoint" />
            <mxPoint x="205" as="targetPoint" />
          </mxGeometry>
        </mxCell>
        <mxCell id="Cm1_plxN0XCDAielUG73-57" value="" style="endArrow=none;html=1;rounded=0;fontSize=12;startSize=8;endSize=8;curved=1;entryX=0.5;entryY=0;entryDx=0;entryDy=0;" parent="Cm1_plxN0XCDAielUG73-53" edge="1">
          <mxGeometry width="50" height="50" relative="1" as="geometry">
            <mxPoint x="304" y="217" as="sourcePoint" />
            <mxPoint x="304" y="-2" as="targetPoint" />
          </mxGeometry>
        </mxCell>
        <mxCell id="Cm1_plxN0XCDAielUG73-58" value="" style="rounded=1;whiteSpace=wrap;html=1;arcSize=7;" parent="1" vertex="1">
          <mxGeometry x="626" y="-116" width="627" height="419" as="geometry" />
        </mxCell>
        <mxCell id="Cm1_plxN0XCDAielUG73-59" value="" style="rounded=1;whiteSpace=wrap;html=1;arcSize=7;" parent="1" vertex="1">
          <mxGeometry x="626" y="-67" width="452" height="370" as="geometry" />
        </mxCell>
        <mxCell id="Cm1_plxN0XCDAielUG73-60" value="&lt;b&gt;&lt;font style=&quot;font-size: 18px;&quot;&gt;Comandera&lt;/font&gt;&lt;/b&gt;" style="text;html=1;align=center;verticalAlign=middle;whiteSpace=wrap;rounded=0;" parent="1" vertex="1">
          <mxGeometry x="800" y="-104.5" width="60" height="30" as="geometry" />
        </mxCell>
        <mxCell id="Cm1_plxN0XCDAielUG73-62" value="" style="endArrow=none;html=1;rounded=0;fontSize=12;startSize=8;endSize=8;curved=1;strokeWidth=3;strokeColor=#4E4E4E;" parent="1" edge="1">
          <mxGeometry width="50" height="50" relative="1" as="geometry">
            <mxPoint x="1095" y="-75.12" as="sourcePoint" />
            <mxPoint x="1117" y="-84" as="targetPoint" />
          </mxGeometry>
        </mxCell>
        <mxCell id="Cm1_plxN0XCDAielUG73-63" value="" style="endArrow=none;html=1;rounded=0;fontSize=12;startSize=8;endSize=8;curved=1;strokeWidth=3;strokeColor=#4E4E4E;" parent="1" edge="1">
          <mxGeometry width="50" height="50" relative="1" as="geometry">
            <mxPoint x="1095" y="-75" as="sourcePoint" />
            <mxPoint x="1117" y="-67" as="targetPoint" />
          </mxGeometry>
        </mxCell>
        <mxCell id="Cm1_plxN0XCDAielUG73-64" value="&lt;strike&gt;Logo restaurante&lt;/strike&gt;" style="rounded=0;whiteSpace=wrap;html=1;" parent="1" vertex="1">
          <mxGeometry x="651" y="-105.5" width="106" height="32" as="geometry" />
        </mxCell>
        <mxCell id="Cm1_plxN0XCDAielUG73-65" value="&amp;nbsp; &amp;nbsp; Lunes 22 de abril.&amp;nbsp; &amp;nbsp; &amp;nbsp;10:40AM" style="rounded=1;whiteSpace=wrap;html=1;align=left;" parent="1" vertex="1">
          <mxGeometry x="820" y="-34" width="405" height="24" as="geometry" />
        </mxCell>
        <mxCell id="Cm1_plxN0XCDAielUG73-66" value="" style="group;rotation=90;" parent="1" vertex="1" connectable="0">
          <mxGeometry x="657" y="-34" width="251" height="265" as="geometry" />
        </mxCell>
        <mxCell id="Cm1_plxN0XCDAielUG73-67" value="" style="rounded=1;whiteSpace=wrap;html=1;" parent="Cm1_plxN0XCDAielUG73-66" vertex="1">
          <mxGeometry width="133" height="265" as="geometry" />
        </mxCell>
        <mxCell id="Cm1_plxN0XCDAielUG73-68" value="&lt;span style=&quot;background-color: transparent; color: light-dark(rgb(0, 0, 0), rgb(255, 255, 255));&quot;&gt;&amp;nbsp; &amp;nbsp; Menu&lt;/span&gt;" style="rounded=1;whiteSpace=wrap;html=1;arcSize=24;align=left;" parent="Cm1_plxN0XCDAielUG73-66" vertex="1">
          <mxGeometry width="133" height="36" as="geometry" />
        </mxCell>
        <mxCell id="Cm1_plxN0XCDAielUG73-69" value="" style="triangle;whiteSpace=wrap;html=1;" parent="Cm1_plxN0XCDAielUG73-66" vertex="1">
          <mxGeometry x="108" y="6" width="16" height="24" as="geometry" />
        </mxCell>
        <mxCell id="Cm1_plxN0XCDAielUG73-70" value="&lt;b&gt;Sopa&lt;/b&gt;" style="text;html=1;align=left;verticalAlign=middle;whiteSpace=wrap;rounded=0;" parent="Cm1_plxN0XCDAielUG73-66" vertex="1">
          <mxGeometry x="13" y="53" width="60" height="30" as="geometry" />
        </mxCell>
        <mxCell id="Cm1_plxN0XCDAielUG73-71" value="&lt;b&gt;Principio&lt;/b&gt;" style="text;html=1;align=left;verticalAlign=middle;whiteSpace=wrap;rounded=0;" parent="Cm1_plxN0XCDAielUG73-66" vertex="1">
          <mxGeometry x="13" y="112" width="60" height="30" as="geometry" />
        </mxCell>
        <mxCell id="Cm1_plxN0XCDAielUG73-72" value="&lt;b&gt;Proteina&lt;/b&gt;" style="text;html=1;align=left;verticalAlign=middle;whiteSpace=wrap;rounded=0;" parent="Cm1_plxN0XCDAielUG73-66" vertex="1">
          <mxGeometry x="13" y="185" width="60" height="30" as="geometry" />
        </mxCell>
        <mxCell id="Cm1_plxN0XCDAielUG73-73" value="&lt;ol&gt;&lt;li&gt;lorem&lt;/li&gt;&lt;li&gt;lorem&lt;/li&gt;&lt;/ol&gt;" style="text;html=1;align=center;verticalAlign=middle;whiteSpace=wrap;rounded=0;" parent="Cm1_plxN0XCDAielUG73-66" vertex="1">
          <mxGeometry x="19" y="76" width="60" height="30" as="geometry" />
        </mxCell>
        <mxCell id="Cm1_plxN0XCDAielUG73-74" value="&lt;ol&gt;&lt;li&gt;lorem&lt;/li&gt;&lt;li&gt;lorem&lt;/li&gt;&lt;li&gt;lorem&lt;/li&gt;&lt;/ol&gt;" style="text;html=1;align=center;verticalAlign=middle;whiteSpace=wrap;rounded=0;" parent="Cm1_plxN0XCDAielUG73-66" vertex="1">
          <mxGeometry x="19" y="141" width="60" height="30" as="geometry" />
        </mxCell>
        <mxCell id="Cm1_plxN0XCDAielUG73-75" value="&lt;ol&gt;&lt;li&gt;lorem&lt;/li&gt;&lt;li&gt;lorem&lt;/li&gt;&lt;li&gt;lorem&lt;/li&gt;&lt;/ol&gt;" style="text;html=1;align=center;verticalAlign=middle;whiteSpace=wrap;rounded=0;" parent="Cm1_plxN0XCDAielUG73-66" vertex="1">
          <mxGeometry x="19" y="213" width="60" height="30" as="geometry" />
        </mxCell>
        <mxCell id="Cm1_plxN0XCDAielUG73-76" value="&lt;b&gt;Pedidos del dia&lt;/b&gt;" style="text;html=1;align=center;verticalAlign=middle;whiteSpace=wrap;rounded=0;" parent="Cm1_plxN0XCDAielUG73-66" vertex="1">
          <mxGeometry x="160" y="135" width="91" height="30" as="geometry" />
        </mxCell>
        <mxCell id="Cm1_plxN0XCDAielUG73-77" value="" style="rounded=1;whiteSpace=wrap;html=1;" parent="1" vertex="1">
          <mxGeometry x="820" y="-13" width="405" height="100" as="geometry" />
        </mxCell>
        <mxCell id="Cm1_plxN0XCDAielUG73-78" value="" style="rounded=0;whiteSpace=wrap;html=1;" parent="1" vertex="1">
          <mxGeometry x="820" y="-13" width="405" height="101" as="geometry" />
        </mxCell>
        <mxCell id="Cm1_plxN0XCDAielUG73-79" value="&lt;div style=&quot;line-height: 100%;&quot;&gt;&lt;font style=&quot;color: rgb(80, 80, 80);&quot;&gt;&lt;span style=&quot;font-size: 29px; background-color: transparent; line-height: 100%;&quot;&gt;&amp;nbsp; &amp;nbsp; &amp;nbsp; 10&lt;/span&gt;&lt;br&gt;&lt;/font&gt;&lt;div&gt;&lt;font style=&quot;font-size: 29px; line-height: 100%; color: rgb(80, 80, 80);&quot;&gt;&amp;nbsp; &amp;nbsp;Ventas&lt;/font&gt;&lt;/div&gt;&lt;/div&gt;" style="rounded=0;whiteSpace=wrap;html=1;align=left;" parent="1" vertex="1">
          <mxGeometry x="820" y="-13" width="141" height="101" as="geometry" />
        </mxCell>
        <mxCell id="Cm1_plxN0XCDAielUG73-80" value="&lt;font style=&quot;font-size: 24px; color: rgb(80, 80, 80);&quot;&gt;&lt;span style=&quot;background-color: transparent; line-height: 29px;&quot;&gt;&amp;nbsp; &amp;nbsp;3 Mesas&lt;/span&gt;&lt;br style=&quot;&quot;&gt;&lt;/font&gt;&lt;div style=&quot;&quot;&gt;&lt;font style=&quot;line-height: 29px; font-size: 24px; color: rgb(80, 80, 80);&quot;&gt;&amp;nbsp; Ocupadas&lt;/font&gt;&lt;/div&gt;" style="rounded=0;whiteSpace=wrap;html=1;align=left;" parent="1" vertex="1">
          <mxGeometry x="961" y="-13" width="141" height="101" as="geometry" />
        </mxCell>
        <mxCell id="Cm1_plxN0XCDAielUG73-81" value="&amp;nbsp; Top productos" style="swimlane;fontStyle=0;childLayout=stackLayout;horizontal=1;startSize=30;horizontalStack=0;resizeParent=1;resizeParentMax=0;resizeLast=0;collapsible=1;marginBottom=0;whiteSpace=wrap;html=1;align=left;movable=1;resizable=1;rotatable=1;deletable=1;editable=1;locked=0;connectable=1;" parent="1" vertex="1">
          <mxGeometry x="1102" y="-13" width="123" height="101" as="geometry">
            <mxRectangle x="362" y="-13" width="117" height="30" as="alternateBounds" />
          </mxGeometry>
        </mxCell>
        <mxCell id="Cm1_plxN0XCDAielUG73-82" value="1. Almuerzo" style="text;strokeColor=none;fillColor=none;align=left;verticalAlign=middle;spacingLeft=4;spacingRight=4;overflow=hidden;points=[[0,0.5],[1,0.5]];portConstraint=eastwest;rotatable=0;whiteSpace=wrap;html=1;" parent="Cm1_plxN0XCDAielUG73-81" vertex="1">
          <mxGeometry y="30" width="123" height="18" as="geometry" />
        </mxCell>
        <mxCell id="Cm1_plxN0XCDAielUG73-83" value="2. Desayuno" style="text;strokeColor=none;fillColor=none;align=left;verticalAlign=middle;spacingLeft=4;spacingRight=4;overflow=hidden;points=[[0,0.5],[1,0.5]];portConstraint=eastwest;rotatable=0;whiteSpace=wrap;html=1;" parent="Cm1_plxN0XCDAielUG73-81" vertex="1">
          <mxGeometry y="48" width="123" height="18" as="geometry" />
        </mxCell>
        <mxCell id="Cm1_plxN0XCDAielUG73-84" value="3. Jugos" style="text;strokeColor=none;fillColor=none;align=left;verticalAlign=middle;spacingLeft=4;spacingRight=4;overflow=hidden;points=[[0,0.5],[1,0.5]];portConstraint=eastwest;rotatable=0;whiteSpace=wrap;html=1;" parent="Cm1_plxN0XCDAielUG73-81" vertex="1">
          <mxGeometry y="66" width="123" height="18" as="geometry" />
        </mxCell>
        <mxCell id="Cm1_plxN0XCDAielUG73-85" value="4. Almojabanas" style="text;strokeColor=none;fillColor=none;align=left;verticalAlign=middle;spacingLeft=4;spacingRight=4;overflow=hidden;points=[[0,0.5],[1,0.5]];portConstraint=eastwest;rotatable=0;whiteSpace=wrap;html=1;" parent="Cm1_plxN0XCDAielUG73-81" vertex="1">
          <mxGeometry y="84" width="123" height="17" as="geometry" />
        </mxCell>
        <mxCell id="Cm1_plxN0XCDAielUG73-86" value="" style="triangle;whiteSpace=wrap;html=1;" parent="1" vertex="1">
          <mxGeometry x="1207" y="-6" width="12" height="17" as="geometry" />
        </mxCell>
        <mxCell id="Cm1_plxN0XCDAielUG73-87" value="" style="group" parent="1" vertex="1" connectable="0">
          <mxGeometry x="820" y="131" width="405" height="178" as="geometry" />
        </mxCell>
        <mxCell id="Cm1_plxN0XCDAielUG73-88" value="" style="rounded=1;whiteSpace=wrap;html=1;arcSize=6;" parent="Cm1_plxN0XCDAielUG73-87" vertex="1">
          <mxGeometry width="405" height="178" as="geometry" />
        </mxCell>
        <mxCell id="Cm1_plxN0XCDAielUG73-89" value="&amp;nbsp; &amp;nbsp; &amp;nbsp; &amp;nbsp; &amp;nbsp;Mesa&amp;nbsp; &amp;nbsp; &amp;nbsp; &amp;nbsp; &amp;nbsp; &amp;nbsp; &amp;nbsp; &amp;nbsp; &amp;nbsp;Estado&amp;nbsp; &amp;nbsp; &amp;nbsp; &amp;nbsp; &amp;nbsp; &amp;nbsp; &amp;nbsp; &amp;nbsp; &amp;nbsp; &amp;nbsp;Comensales&amp;nbsp; &amp;nbsp; &amp;nbsp; &amp;nbsp; &amp;nbsp; &amp;nbsp; &amp;nbsp; &amp;nbsp;Detalle&amp;nbsp; &amp;nbsp;" style="rounded=1;whiteSpace=wrap;html=1;arcSize=6;align=left;" parent="Cm1_plxN0XCDAielUG73-87" vertex="1">
          <mxGeometry width="405" height="21.96595744680851" as="geometry" />
        </mxCell>
        <mxCell id="Cm1_plxN0XCDAielUG73-90" value="" style="endArrow=none;html=1;rounded=0;fontSize=12;startSize=8;endSize=8;curved=1;entryX=0.25;entryY=0;entryDx=0;entryDy=0;exitX=0.25;exitY=1;exitDx=0;exitDy=0;" parent="Cm1_plxN0XCDAielUG73-87" source="Cm1_plxN0XCDAielUG73-88" target="Cm1_plxN0XCDAielUG73-89" edge="1">
          <mxGeometry width="50" height="50" relative="1" as="geometry">
            <mxPoint x="107" y="75.46543778801843" as="sourcePoint" />
            <mxPoint x="157" y="34.45161290322581" as="targetPoint" />
          </mxGeometry>
        </mxCell>
        <mxCell id="Cm1_plxN0XCDAielUG73-91" value="" style="endArrow=none;html=1;rounded=0;fontSize=12;startSize=8;endSize=8;curved=1;entryX=0.5;entryY=0;entryDx=0;entryDy=0;" parent="Cm1_plxN0XCDAielUG73-87" target="Cm1_plxN0XCDAielUG73-89" edge="1">
          <mxGeometry width="50" height="50" relative="1" as="geometry">
            <mxPoint x="203" y="179.64055299539172" as="sourcePoint" />
            <mxPoint x="205" as="targetPoint" />
          </mxGeometry>
        </mxCell>
        <mxCell id="Cm1_plxN0XCDAielUG73-92" value="" style="endArrow=none;html=1;rounded=0;fontSize=12;startSize=8;endSize=8;curved=1;entryX=0.5;entryY=0;entryDx=0;entryDy=0;" parent="Cm1_plxN0XCDAielUG73-87" edge="1">
          <mxGeometry width="50" height="50" relative="1" as="geometry">
            <mxPoint x="304" y="178" as="sourcePoint" />
            <mxPoint x="304" y="-1.640552995391705" as="targetPoint" />
          </mxGeometry>
        </mxCell>
        <mxCell id="Cm1_plxN0XCDAielUG73-93" value="" style="rounded=0;whiteSpace=wrap;html=1;strokeColor=none;" parent="1" vertex="1">
          <mxGeometry x="1078" y="-39" width="173" height="349" as="geometry" />
        </mxCell>
        <mxCell id="Cm1_plxN0XCDAielUG73-94" value="" style="endArrow=none;html=1;rounded=0;fontSize=12;startSize=8;endSize=8;curved=1;entryX=0;entryY=0;entryDx=0;entryDy=0;exitX=0;exitY=1;exitDx=0;exitDy=0;" parent="1" source="Cm1_plxN0XCDAielUG73-93" target="Cm1_plxN0XCDAielUG73-93" edge="1">
          <mxGeometry width="50" height="50" relative="1" as="geometry">
            <mxPoint x="1096" y="48" as="sourcePoint" />
            <mxPoint x="1146" y="-2" as="targetPoint" />
          </mxGeometry>
        </mxCell>
        <mxCell id="Cm1_plxN0XCDAielUG73-61" value="Inicio" style="rounded=1;whiteSpace=wrap;html=1;" parent="1" vertex="1">
          <mxGeometry x="1102" y="1" width="117" height="28" as="geometry" />
        </mxCell>
        <mxCell id="Cm1_plxN0XCDAielUG73-95" value="&lt;b&gt;Comandas&lt;/b&gt;" style="text;html=1;align=center;verticalAlign=middle;whiteSpace=wrap;rounded=0;" parent="1" vertex="1">
          <mxGeometry x="1102" y="35" width="60" height="30" as="geometry" />
        </mxCell>
        <mxCell id="Cm1_plxN0XCDAielUG73-96" value="&lt;b&gt;Equipo&lt;/b&gt;" style="text;html=1;align=left;verticalAlign=middle;whiteSpace=wrap;rounded=0;" parent="1" vertex="1">
          <mxGeometry x="1102" y="65" width="60" height="30" as="geometry" />
        </mxCell>
        <mxCell id="Cm1_plxN0XCDAielUG73-97" value="&lt;b&gt;Estadisticas&lt;/b&gt;" style="text;html=1;align=left;verticalAlign=middle;whiteSpace=wrap;rounded=0;" parent="1" vertex="1">
          <mxGeometry x="1102" y="95" width="60" height="30" as="geometry" />
        </mxCell>
        <mxCell id="Cm1_plxN0XCDAielUG73-98" value="&lt;b&gt;Productos&lt;/b&gt;" style="text;html=1;align=left;verticalAlign=middle;whiteSpace=wrap;rounded=0;" parent="1" vertex="1">
          <mxGeometry x="1102" y="131" width="60" height="30" as="geometry" />
        </mxCell>
        <mxCell id="Cm1_plxN0XCDAielUG73-99" value="&lt;b&gt;Mesas&lt;/b&gt;" style="text;html=1;align=left;verticalAlign=middle;whiteSpace=wrap;rounded=0;" parent="1" vertex="1">
          <mxGeometry x="1101" y="164" width="60" height="30" as="geometry" />
        </mxCell>
        <mxCell id="Cm1_plxN0XCDAielUG73-100" value="&lt;b&gt;&lt;font style=&quot;font-size: 14px;&quot;&gt;Administrar&lt;/font&gt;&lt;/b&gt;" style="text;html=1;align=center;verticalAlign=middle;whiteSpace=wrap;rounded=0;fontColor=#4E4E4E;" parent="1" vertex="1">
          <mxGeometry x="1142" y="-90" width="60" height="30" as="geometry" />
        </mxCell>
        <mxCell id="Cm1_plxN0XCDAielUG73-101" value="" style="rounded=1;whiteSpace=wrap;html=1;arcSize=7;" parent="1" vertex="1">
          <mxGeometry x="-115" y="432" width="627" height="419" as="geometry" />
        </mxCell>
        <mxCell id="Cm1_plxN0XCDAielUG73-102" value="" style="rounded=1;whiteSpace=wrap;html=1;arcSize=7;" parent="1" vertex="1">
          <mxGeometry x="-115" y="481" width="627" height="370" as="geometry" />
        </mxCell>
        <mxCell id="Cm1_plxN0XCDAielUG73-103" value="&lt;b&gt;&lt;font style=&quot;font-size: 18px;&quot;&gt;Comandera&lt;/font&gt;&lt;/b&gt;" style="text;html=1;align=center;verticalAlign=middle;whiteSpace=wrap;rounded=0;" parent="1" vertex="1">
          <mxGeometry x="59" y="443.5" width="60" height="30" as="geometry" />
        </mxCell>
        <mxCell id="Cm1_plxN0XCDAielUG73-104" value="Equipo" style="rounded=1;whiteSpace=wrap;html=1;" parent="1" vertex="1">
          <mxGeometry x="346" y="448.25" width="73" height="20.5" as="geometry" />
        </mxCell>
        <mxCell id="Cm1_plxN0XCDAielUG73-105" value="" style="endArrow=none;html=1;rounded=0;fontSize=12;startSize=8;endSize=8;curved=1;strokeWidth=4;strokeColor=#4E4E4E;" parent="1" edge="1">
          <mxGeometry width="50" height="50" relative="1" as="geometry">
            <mxPoint x="452" y="452.68" as="sourcePoint" />
            <mxPoint x="485" y="452.68" as="targetPoint" />
          </mxGeometry>
        </mxCell>
        <mxCell id="Cm1_plxN0XCDAielUG73-106" value="" style="endArrow=none;html=1;rounded=0;fontSize=12;startSize=8;endSize=8;curved=1;strokeWidth=4;strokeColor=#4E4E4E;" parent="1" edge="1">
          <mxGeometry width="50" height="50" relative="1" as="geometry">
            <mxPoint x="452" y="464.07" as="sourcePoint" />
            <mxPoint x="485" y="464.07" as="targetPoint" />
          </mxGeometry>
        </mxCell>
        <mxCell id="Cm1_plxN0XCDAielUG73-107" value="&lt;strike&gt;Logo restaurante&lt;/strike&gt;" style="rounded=0;whiteSpace=wrap;html=1;" parent="1" vertex="1">
          <mxGeometry x="-90" y="442.5" width="106" height="32" as="geometry" />
        </mxCell>
        <mxCell id="Cm1_plxN0XCDAielUG73-179" value="" style="rounded=1;whiteSpace=wrap;html=1;arcSize=7;" parent="1" vertex="1">
          <mxGeometry x="626" y="432" width="627" height="419" as="geometry" />
        </mxCell>
        <mxCell id="Cm1_plxN0XCDAielUG73-180" value="" style="rounded=1;whiteSpace=wrap;html=1;arcSize=7;" parent="1" vertex="1">
          <mxGeometry x="626" y="481" width="627" height="370" as="geometry" />
        </mxCell>
        <mxCell id="Cm1_plxN0XCDAielUG73-181" value="&lt;b&gt;&lt;font style=&quot;font-size: 18px;&quot;&gt;Comandera&lt;/font&gt;&lt;/b&gt;" style="text;html=1;align=center;verticalAlign=middle;whiteSpace=wrap;rounded=0;" parent="1" vertex="1">
          <mxGeometry x="800" y="443.5" width="60" height="30" as="geometry" />
        </mxCell>
        <mxCell id="Cm1_plxN0XCDAielUG73-182" value="Estadisticas" style="rounded=1;whiteSpace=wrap;html=1;" parent="1" vertex="1">
          <mxGeometry x="1087" y="448.25" width="73" height="20.5" as="geometry" />
        </mxCell>
        <mxCell id="Cm1_plxN0XCDAielUG73-183" value="" style="endArrow=none;html=1;rounded=0;fontSize=12;startSize=8;endSize=8;curved=1;strokeWidth=4;strokeColor=#4E4E4E;" parent="1" edge="1">
          <mxGeometry width="50" height="50" relative="1" as="geometry">
            <mxPoint x="1193" y="452.68" as="sourcePoint" />
            <mxPoint x="1226" y="452.68" as="targetPoint" />
          </mxGeometry>
        </mxCell>
        <mxCell id="Cm1_plxN0XCDAielUG73-184" value="" style="endArrow=none;html=1;rounded=0;fontSize=12;startSize=8;endSize=8;curved=1;strokeWidth=4;strokeColor=#4E4E4E;" parent="1" edge="1">
          <mxGeometry width="50" height="50" relative="1" as="geometry">
            <mxPoint x="1193" y="464.07" as="sourcePoint" />
            <mxPoint x="1226" y="464.07" as="targetPoint" />
          </mxGeometry>
        </mxCell>
        <mxCell id="Cm1_plxN0XCDAielUG73-185" value="&lt;strike&gt;Logo restaurante&lt;/strike&gt;" style="rounded=0;whiteSpace=wrap;html=1;" parent="1" vertex="1">
          <mxGeometry x="651" y="442.5" width="106" height="32" as="geometry" />
        </mxCell>
        <mxCell id="Cm1_plxN0XCDAielUG73-186" value="" style="rounded=1;whiteSpace=wrap;html=1;arcSize=7;" parent="1" vertex="1">
          <mxGeometry x="614" y="944" width="627" height="419" as="geometry" />
        </mxCell>
        <mxCell id="Cm1_plxN0XCDAielUG73-187" value="" style="rounded=1;whiteSpace=wrap;html=1;arcSize=7;" parent="1" vertex="1">
          <mxGeometry x="614" y="993" width="627" height="370" as="geometry" />
        </mxCell>
        <mxCell id="Cm1_plxN0XCDAielUG73-188" value="&lt;b&gt;&lt;font style=&quot;font-size: 18px;&quot;&gt;Comandera&lt;/font&gt;&lt;/b&gt;" style="text;html=1;align=center;verticalAlign=middle;whiteSpace=wrap;rounded=0;" parent="1" vertex="1">
          <mxGeometry x="788" y="955.5" width="60" height="30" as="geometry" />
        </mxCell>
        <mxCell id="Cm1_plxN0XCDAielUG73-189" value="Mesas" style="rounded=1;whiteSpace=wrap;html=1;" parent="1" vertex="1">
          <mxGeometry x="1075" y="960.25" width="73" height="20.5" as="geometry" />
        </mxCell>
        <mxCell id="Cm1_plxN0XCDAielUG73-190" value="" style="endArrow=none;html=1;rounded=0;fontSize=12;startSize=8;endSize=8;curved=1;strokeWidth=4;strokeColor=#4E4E4E;" parent="1" edge="1">
          <mxGeometry width="50" height="50" relative="1" as="geometry">
            <mxPoint x="1181" y="964.6800000000001" as="sourcePoint" />
            <mxPoint x="1214" y="964.6800000000001" as="targetPoint" />
          </mxGeometry>
        </mxCell>
        <mxCell id="Cm1_plxN0XCDAielUG73-191" value="" style="endArrow=none;html=1;rounded=0;fontSize=12;startSize=8;endSize=8;curved=1;strokeWidth=4;strokeColor=#4E4E4E;" parent="1" edge="1">
          <mxGeometry width="50" height="50" relative="1" as="geometry">
            <mxPoint x="1181" y="976.0699999999999" as="sourcePoint" />
            <mxPoint x="1214" y="976.0699999999999" as="targetPoint" />
          </mxGeometry>
        </mxCell>
        <mxCell id="Cm1_plxN0XCDAielUG73-192" value="&lt;strike&gt;Logo restaurante&lt;/strike&gt;" style="rounded=0;whiteSpace=wrap;html=1;" parent="1" vertex="1">
          <mxGeometry x="639" y="954.5" width="106" height="32" as="geometry" />
        </mxCell>
        <mxCell id="Cm1_plxN0XCDAielUG73-193" value="" style="rounded=1;whiteSpace=wrap;html=1;arcSize=7;" parent="1" vertex="1">
          <mxGeometry x="-120" y="944" width="627" height="419" as="geometry" />
        </mxCell>
        <mxCell id="Cm1_plxN0XCDAielUG73-194" value="" style="rounded=1;whiteSpace=wrap;html=1;arcSize=7;" parent="1" vertex="1">
          <mxGeometry x="-120" y="993" width="627" height="370" as="geometry" />
        </mxCell>
        <mxCell id="Cm1_plxN0XCDAielUG73-195" value="&lt;b&gt;&lt;font style=&quot;font-size: 18px;&quot;&gt;Comandera&lt;/font&gt;&lt;/b&gt;" style="text;html=1;align=center;verticalAlign=middle;whiteSpace=wrap;rounded=0;" parent="1" vertex="1">
          <mxGeometry x="54" y="955.5" width="60" height="30" as="geometry" />
        </mxCell>
        <mxCell id="Cm1_plxN0XCDAielUG73-196" value="Productos" style="rounded=1;whiteSpace=wrap;html=1;" parent="1" vertex="1">
          <mxGeometry x="341" y="960.25" width="73" height="20.5" as="geometry" />
        </mxCell>
        <mxCell id="Cm1_plxN0XCDAielUG73-197" value="" style="endArrow=none;html=1;rounded=0;fontSize=12;startSize=8;endSize=8;curved=1;strokeWidth=4;strokeColor=#4E4E4E;" parent="1" edge="1">
          <mxGeometry width="50" height="50" relative="1" as="geometry">
            <mxPoint x="447" y="964.6800000000001" as="sourcePoint" />
            <mxPoint x="480" y="964.6800000000001" as="targetPoint" />
          </mxGeometry>
        </mxCell>
        <mxCell id="Cm1_plxN0XCDAielUG73-198" value="" style="endArrow=none;html=1;rounded=0;fontSize=12;startSize=8;endSize=8;curved=1;strokeWidth=4;strokeColor=#4E4E4E;" parent="1" edge="1">
          <mxGeometry width="50" height="50" relative="1" as="geometry">
            <mxPoint x="447" y="976.0699999999999" as="sourcePoint" />
            <mxPoint x="480" y="976.0699999999999" as="targetPoint" />
          </mxGeometry>
        </mxCell>
        <mxCell id="Cm1_plxN0XCDAielUG73-199" value="&lt;strike&gt;Logo restaurante&lt;/strike&gt;" style="rounded=0;whiteSpace=wrap;html=1;" parent="1" vertex="1">
          <mxGeometry x="-95" y="954.5" width="106" height="32" as="geometry" />
        </mxCell>
        <mxCell id="Cm1_plxN0XCDAielUG73-200" value="" style="rounded=1;whiteSpace=wrap;html=1;arcSize=7;" parent="1" vertex="1">
          <mxGeometry x="1336" y="942" width="627" height="419" as="geometry" />
        </mxCell>
        <mxCell id="Cm1_plxN0XCDAielUG73-201" value="" style="rounded=1;whiteSpace=wrap;html=1;arcSize=7;" parent="1" vertex="1">
          <mxGeometry x="1336" y="991" width="627" height="370" as="geometry" />
        </mxCell>
        <mxCell id="Cm1_plxN0XCDAielUG73-202" value="&lt;b&gt;&lt;font style=&quot;font-size: 18px;&quot;&gt;Comandera&lt;/font&gt;&lt;/b&gt;" style="text;html=1;align=center;verticalAlign=middle;whiteSpace=wrap;rounded=0;" parent="1" vertex="1">
          <mxGeometry x="1510" y="953.5" width="60" height="30" as="geometry" />
        </mxCell>
        <mxCell id="Cm1_plxN0XCDAielUG73-203" value="Comandas" style="rounded=1;whiteSpace=wrap;html=1;" parent="1" vertex="1">
          <mxGeometry x="1797" y="958.25" width="73" height="20.5" as="geometry" />
        </mxCell>
        <mxCell id="Cm1_plxN0XCDAielUG73-204" value="" style="endArrow=none;html=1;rounded=0;fontSize=12;startSize=8;endSize=8;curved=1;strokeWidth=4;strokeColor=#4E4E4E;" parent="1" edge="1">
          <mxGeometry width="50" height="50" relative="1" as="geometry">
            <mxPoint x="1903" y="962.6800000000001" as="sourcePoint" />
            <mxPoint x="1936" y="962.6800000000001" as="targetPoint" />
          </mxGeometry>
        </mxCell>
        <mxCell id="Cm1_plxN0XCDAielUG73-205" value="" style="endArrow=none;html=1;rounded=0;fontSize=12;startSize=8;endSize=8;curved=1;strokeWidth=4;strokeColor=#4E4E4E;" parent="1" edge="1">
          <mxGeometry width="50" height="50" relative="1" as="geometry">
            <mxPoint x="1903" y="974.0699999999999" as="sourcePoint" />
            <mxPoint x="1936" y="974.0699999999999" as="targetPoint" />
          </mxGeometry>
        </mxCell>
        <mxCell id="Cm1_plxN0XCDAielUG73-206" value="&lt;strike&gt;Logo restaurante&lt;/strike&gt;" style="rounded=0;whiteSpace=wrap;html=1;" parent="1" vertex="1">
          <mxGeometry x="1361" y="952.5" width="106" height="32" as="geometry" />
        </mxCell>
        <mxCell id="Cm1_plxN0XCDAielUG73-207" value="&lt;font style=&quot;font-size: 72px;&quot;&gt;Panel administrativo&lt;/font&gt;" style="text;html=1;align=left;verticalAlign=middle;whiteSpace=wrap;rounded=0;fontStyle=1;fontSize=90;" parent="1" vertex="1">
          <mxGeometry x="-127.5" y="-290" width="716.5" height="113" as="geometry" />
        </mxCell>
        <mxCell id="Cm1_plxN0XCDAielUG73-208" value="&lt;font style=&quot;font-size: 72px;&quot;&gt;Panel Worker&lt;/font&gt;" style="text;html=1;align=left;verticalAlign=middle;whiteSpace=wrap;rounded=0;fontStyle=1;fontSize=90;" parent="1" vertex="1">
          <mxGeometry x="2819" y="-290" width="716.5" height="113" as="geometry" />
        </mxCell>
        <mxCell id="lCDzhk1fqNKbVMKusiZE-2" value="" style="rounded=0;whiteSpace=wrap;html=1;" vertex="1" parent="1">
          <mxGeometry x="2722.5" y="-61" width="245" height="400.5" as="geometry" />
        </mxCell>
        <mxCell id="lCDzhk1fqNKbVMKusiZE-3" value="" style="rounded=1;whiteSpace=wrap;html=1;" vertex="1" parent="1">
          <mxGeometry x="2722.5" y="-26" width="245" height="365" as="geometry" />
        </mxCell>
        <mxCell id="lCDzhk1fqNKbVMKusiZE-4" value="" style="rounded=0;whiteSpace=wrap;html=1;strokeColor=none;" vertex="1" parent="1">
          <mxGeometry x="2723.5" y="279" width="243" height="60" as="geometry" />
        </mxCell>
        <mxCell id="lCDzhk1fqNKbVMKusiZE-5" value="Menu" style="text;html=1;align=center;verticalAlign=middle;whiteSpace=wrap;rounded=0;fontStyle=5;horizontal=1;fillColor=none;strokeColor=none;" vertex="1" parent="1">
          <mxGeometry x="2736.5" y="-56" width="60" height="30" as="geometry" />
        </mxCell>
        <mxCell id="lCDzhk1fqNKbVMKusiZE-6" value="Carta" style="text;html=1;align=center;verticalAlign=middle;whiteSpace=wrap;rounded=0;fontStyle=1" vertex="1" parent="1">
          <mxGeometry x="2786.5" y="-56" width="60" height="30" as="geometry" />
        </mxCell>
        <mxCell id="lCDzhk1fqNKbVMKusiZE-7" value="Pedidos" style="text;html=1;align=center;verticalAlign=middle;whiteSpace=wrap;rounded=0;fontStyle=1" vertex="1" parent="1">
          <mxGeometry x="2840.5" y="-56" width="60" height="30" as="geometry" />
        </mxCell>
        <mxCell id="lCDzhk1fqNKbVMKusiZE-8" value="" style="endArrow=none;html=1;rounded=0;fontSize=12;startSize=8;endSize=8;curved=1;strokeWidth=4;strokeColor=#4E4E4E;" edge="1" parent="1">
          <mxGeometry width="50" height="50" relative="1" as="geometry">
            <mxPoint x="2925.5" y="-37" as="sourcePoint" />
            <mxPoint x="2949.5" y="-37.10000000000003" as="targetPoint" />
          </mxGeometry>
        </mxCell>
        <mxCell id="lCDzhk1fqNKbVMKusiZE-9" value="" style="endArrow=none;html=1;rounded=0;fontSize=12;startSize=8;endSize=8;curved=1;strokeWidth=4;strokeColor=#4E4E4E;" edge="1" parent="1">
          <mxGeometry width="50" height="50" relative="1" as="geometry">
            <mxPoint x="2925.5" y="-47" as="sourcePoint" />
            <mxPoint x="2949.5" y="-46.920000000000016" as="targetPoint" />
          </mxGeometry>
        </mxCell>
        <mxCell id="lCDzhk1fqNKbVMKusiZE-10" value="" style="ellipse;whiteSpace=wrap;html=1;aspect=fixed;" vertex="1" parent="1">
          <mxGeometry x="2743.5" y="35" width="10" height="10" as="geometry" />
        </mxCell>
        <mxCell id="lCDzhk1fqNKbVMKusiZE-11" value="Lorem" style="text;html=1;align=center;verticalAlign=middle;whiteSpace=wrap;rounded=0;" vertex="1" parent="1">
          <mxGeometry x="2749.5" y="25" width="60" height="30" as="geometry" />
        </mxCell>
        <mxCell id="lCDzhk1fqNKbVMKusiZE-12" value="Sopas" style="text;html=1;align=center;verticalAlign=middle;whiteSpace=wrap;rounded=0;fontStyle=1" vertex="1" parent="1">
          <mxGeometry x="2726.5" y="1" width="60" height="30" as="geometry" />
        </mxCell>
        <mxCell id="lCDzhk1fqNKbVMKusiZE-13" value="Lorem" style="text;html=1;align=center;verticalAlign=middle;whiteSpace=wrap;rounded=0;" vertex="1" parent="1">
          <mxGeometry x="2749.5" y="64" width="60" height="11" as="geometry" />
        </mxCell>
        <mxCell id="lCDzhk1fqNKbVMKusiZE-14" value="" style="ellipse;whiteSpace=wrap;html=1;aspect=fixed;" vertex="1" parent="1">
          <mxGeometry x="2743.5" y="55" width="10" height="10" as="geometry" />
        </mxCell>
        <mxCell id="lCDzhk1fqNKbVMKusiZE-15" value="Lorem" style="text;html=1;align=center;verticalAlign=middle;whiteSpace=wrap;rounded=0;" vertex="1" parent="1">
          <mxGeometry x="2749.5" y="65" width="60" height="30" as="geometry" />
        </mxCell>
        <mxCell id="lCDzhk1fqNKbVMKusiZE-16" value="" style="ellipse;whiteSpace=wrap;html=1;aspect=fixed;" vertex="1" parent="1">
          <mxGeometry x="2743.5" y="75" width="10" height="10" as="geometry" />
        </mxCell>
        <mxCell id="lCDzhk1fqNKbVMKusiZE-17" value="Lorem" style="text;html=1;align=center;verticalAlign=middle;whiteSpace=wrap;rounded=0;" vertex="1" parent="1">
          <mxGeometry x="2748" y="159" width="60" height="30" as="geometry" />
        </mxCell>
        <mxCell id="lCDzhk1fqNKbVMKusiZE-18" value="" style="ellipse;whiteSpace=wrap;html=1;aspect=fixed;" vertex="1" parent="1">
          <mxGeometry x="2742" y="169" width="10" height="10" as="geometry" />
        </mxCell>
        <mxCell id="lCDzhk1fqNKbVMKusiZE-19" value="Lorem" style="text;html=1;align=center;verticalAlign=middle;whiteSpace=wrap;rounded=0;" vertex="1" parent="1">
          <mxGeometry x="2748" y="119" width="60" height="30" as="geometry" />
        </mxCell>
        <mxCell id="lCDzhk1fqNKbVMKusiZE-20" value="" style="ellipse;whiteSpace=wrap;html=1;aspect=fixed;" vertex="1" parent="1">
          <mxGeometry x="2742" y="129" width="10" height="10" as="geometry" />
        </mxCell>
        <mxCell id="lCDzhk1fqNKbVMKusiZE-21" value="" style="ellipse;whiteSpace=wrap;html=1;aspect=fixed;" vertex="1" parent="1">
          <mxGeometry x="2742" y="149" width="10" height="10" as="geometry" />
        </mxCell>
        <mxCell id="lCDzhk1fqNKbVMKusiZE-22" value="Lorem" style="text;html=1;align=center;verticalAlign=middle;whiteSpace=wrap;rounded=0;" vertex="1" parent="1">
          <mxGeometry x="2748" y="139" width="60" height="30" as="geometry" />
        </mxCell>
        <mxCell id="lCDzhk1fqNKbVMKusiZE-23" value="Principios" style="text;html=1;align=center;verticalAlign=middle;whiteSpace=wrap;rounded=0;fontStyle=1" vertex="1" parent="1">
          <mxGeometry x="2736" y="95" width="60" height="30" as="geometry" />
        </mxCell>
        <mxCell id="lCDzhk1fqNKbVMKusiZE-24" value="Lorem" style="text;html=1;align=center;verticalAlign=middle;whiteSpace=wrap;rounded=0;" vertex="1" parent="1">
          <mxGeometry x="2753.5" y="261" width="60" height="30" as="geometry" />
        </mxCell>
        <mxCell id="lCDzhk1fqNKbVMKusiZE-25" value="" style="ellipse;whiteSpace=wrap;html=1;aspect=fixed;" vertex="1" parent="1">
          <mxGeometry x="2747.5" y="271" width="10" height="10" as="geometry" />
        </mxCell>
        <mxCell id="lCDzhk1fqNKbVMKusiZE-26" value="Lorem" style="text;html=1;align=center;verticalAlign=middle;whiteSpace=wrap;rounded=0;" vertex="1" parent="1">
          <mxGeometry x="2753.5" y="221" width="60" height="30" as="geometry" />
        </mxCell>
        <mxCell id="lCDzhk1fqNKbVMKusiZE-27" value="" style="ellipse;whiteSpace=wrap;html=1;aspect=fixed;" vertex="1" parent="1">
          <mxGeometry x="2747.5" y="231" width="10" height="10" as="geometry" />
        </mxCell>
        <mxCell id="lCDzhk1fqNKbVMKusiZE-28" value="" style="ellipse;whiteSpace=wrap;html=1;aspect=fixed;" vertex="1" parent="1">
          <mxGeometry x="2747.5" y="251" width="10" height="10" as="geometry" />
        </mxCell>
        <mxCell id="lCDzhk1fqNKbVMKusiZE-29" value="Lorem" style="text;html=1;align=center;verticalAlign=middle;whiteSpace=wrap;rounded=0;" vertex="1" parent="1">
          <mxGeometry x="2753.5" y="241" width="60" height="30" as="geometry" />
        </mxCell>
        <mxCell id="lCDzhk1fqNKbVMKusiZE-30" value="Proteinas" style="text;html=1;align=center;verticalAlign=middle;whiteSpace=wrap;rounded=0;fontStyle=1" vertex="1" parent="1">
          <mxGeometry x="2736.5" y="196" width="60" height="30" as="geometry" />
        </mxCell>
        <mxCell id="lCDzhk1fqNKbVMKusiZE-31" value="" style="rounded=1;whiteSpace=wrap;html=1;" vertex="1" parent="1">
          <mxGeometry x="2722" y="231" width="246" height="188" as="geometry" />
        </mxCell>
        <mxCell id="lCDzhk1fqNKbVMKusiZE-32" value="1" style="rounded=0;whiteSpace=wrap;html=1;fillColor=#ffe6cc;strokeColor=#d79b00;" vertex="1" parent="1">
          <mxGeometry x="2739.5" y="257" width="31" height="26" as="geometry" />
        </mxCell>
        <mxCell id="lCDzhk1fqNKbVMKusiZE-33" value="Comensales" style="text;html=1;align=left;verticalAlign=middle;whiteSpace=wrap;rounded=0;" vertex="1" parent="1">
          <mxGeometry x="2739.5" y="239" width="60" height="12" as="geometry" />
        </mxCell>
        <mxCell id="lCDzhk1fqNKbVMKusiZE-34" value="2" style="rounded=0;whiteSpace=wrap;html=1;" vertex="1" parent="1">
          <mxGeometry x="2778.5" y="257" width="31" height="26" as="geometry" />
        </mxCell>
        <mxCell id="lCDzhk1fqNKbVMKusiZE-35" value="3" style="rounded=0;whiteSpace=wrap;html=1;" vertex="1" parent="1">
          <mxGeometry x="2815.5" y="257" width="31" height="26" as="geometry" />
        </mxCell>
        <mxCell id="lCDzhk1fqNKbVMKusiZE-36" value="+" style="rounded=1;whiteSpace=wrap;html=1;fillColor=default;arcSize=50;" vertex="1" parent="1">
          <mxGeometry x="2919.5" y="256" width="31" height="25" as="geometry" />
        </mxCell>
        <mxCell id="lCDzhk1fqNKbVMKusiZE-37" value="" style="shape=process;whiteSpace=wrap;html=1;backgroundOutline=1;" vertex="1" parent="1">
          <mxGeometry x="2742" y="300" width="202.5" height="85" as="geometry" />
        </mxCell>
        <mxCell id="lCDzhk1fqNKbVMKusiZE-38" value="&lt;ul&gt;&lt;li&gt;Lorem&amp;nbsp; (+)&lt;/li&gt;&lt;li&gt;Lorem&amp;nbsp; (+)&lt;/li&gt;&lt;li&gt;Lorem&amp;nbsp; (+)&lt;/li&gt;&lt;/ul&gt;" style="text;html=1;align=left;verticalAlign=middle;whiteSpace=wrap;rounded=0;" vertex="1" parent="1">
          <mxGeometry x="2762.5" y="315" width="145" height="30" as="geometry" />
        </mxCell>
        <mxCell id="lCDzhk1fqNKbVMKusiZE-39" value="" style="triangle;whiteSpace=wrap;html=1;" vertex="1" parent="1">
          <mxGeometry x="2868.5" y="313" width="8" height="8.5" as="geometry" />
        </mxCell>
        <mxCell id="lCDzhk1fqNKbVMKusiZE-40" value="" style="triangle;whiteSpace=wrap;html=1;" vertex="1" parent="1">
          <mxGeometry x="2868.5" y="328" width="8" height="8.5" as="geometry" />
        </mxCell>
        <mxCell id="lCDzhk1fqNKbVMKusiZE-41" value="" style="triangle;whiteSpace=wrap;html=1;" vertex="1" parent="1">
          <mxGeometry x="2868.5" y="342" width="8" height="8.5" as="geometry" />
        </mxCell>
        <mxCell id="lCDzhk1fqNKbVMKusiZE-42" value="" style="rounded=0;whiteSpace=wrap;html=1;" vertex="1" parent="1">
          <mxGeometry x="3075.5" y="-60" width="245.5" height="400.5" as="geometry" />
        </mxCell>
        <mxCell id="lCDzhk1fqNKbVMKusiZE-43" value="" style="rounded=1;whiteSpace=wrap;html=1;" vertex="1" parent="1">
          <mxGeometry x="3076.5" y="-31" width="245" height="365" as="geometry" />
        </mxCell>
        <mxCell id="lCDzhk1fqNKbVMKusiZE-44" value="" style="rounded=0;whiteSpace=wrap;html=1;strokeColor=none;" vertex="1" parent="1">
          <mxGeometry x="3076.5" y="280" width="243" height="60" as="geometry" />
        </mxCell>
        <mxCell id="lCDzhk1fqNKbVMKusiZE-45" value="Menu" style="text;html=1;align=center;verticalAlign=middle;whiteSpace=wrap;rounded=0;fontStyle=1;horizontal=1;fillColor=none;strokeColor=none;" vertex="1" parent="1">
          <mxGeometry x="3089.5" y="-55" width="60" height="30" as="geometry" />
        </mxCell>
        <mxCell id="lCDzhk1fqNKbVMKusiZE-46" value="Carta" style="text;html=1;align=center;verticalAlign=middle;whiteSpace=wrap;rounded=0;fontStyle=5" vertex="1" parent="1">
          <mxGeometry x="3139.5" y="-55" width="60" height="30" as="geometry" />
        </mxCell>
        <mxCell id="lCDzhk1fqNKbVMKusiZE-47" value="Pedidos" style="text;html=1;align=center;verticalAlign=middle;whiteSpace=wrap;rounded=0;fontStyle=1" vertex="1" parent="1">
          <mxGeometry x="3193.5" y="-55" width="60" height="30" as="geometry" />
        </mxCell>
        <mxCell id="lCDzhk1fqNKbVMKusiZE-48" value="" style="endArrow=none;html=1;rounded=0;fontSize=12;startSize=8;endSize=8;curved=1;strokeWidth=4;strokeColor=#4E4E4E;" edge="1" parent="1">
          <mxGeometry width="50" height="50" relative="1" as="geometry">
            <mxPoint x="3278.5" y="-36" as="sourcePoint" />
            <mxPoint x="3302.5" y="-36.10000000000003" as="targetPoint" />
          </mxGeometry>
        </mxCell>
        <mxCell id="lCDzhk1fqNKbVMKusiZE-49" value="" style="endArrow=none;html=1;rounded=0;fontSize=12;startSize=8;endSize=8;curved=1;strokeWidth=4;strokeColor=#4E4E4E;" edge="1" parent="1">
          <mxGeometry width="50" height="50" relative="1" as="geometry">
            <mxPoint x="3278.5" y="-46" as="sourcePoint" />
            <mxPoint x="3302.5" y="-45.920000000000016" as="targetPoint" />
          </mxGeometry>
        </mxCell>
        <mxCell id="lCDzhk1fqNKbVMKusiZE-64" value="Lorem" style="text;html=1;align=center;verticalAlign=middle;whiteSpace=wrap;rounded=0;" vertex="1" parent="1">
          <mxGeometry x="3106.5" y="262" width="60" height="30" as="geometry" />
        </mxCell>
        <mxCell id="lCDzhk1fqNKbVMKusiZE-65" value="" style="ellipse;whiteSpace=wrap;html=1;aspect=fixed;" vertex="1" parent="1">
          <mxGeometry x="3100.5" y="272" width="10" height="10" as="geometry" />
        </mxCell>
        <mxCell id="lCDzhk1fqNKbVMKusiZE-66" value="Lorem" style="text;html=1;align=center;verticalAlign=middle;whiteSpace=wrap;rounded=0;" vertex="1" parent="1">
          <mxGeometry x="3106.5" y="222" width="60" height="30" as="geometry" />
        </mxCell>
        <mxCell id="lCDzhk1fqNKbVMKusiZE-67" value="" style="ellipse;whiteSpace=wrap;html=1;aspect=fixed;" vertex="1" parent="1">
          <mxGeometry x="3100.5" y="232" width="10" height="10" as="geometry" />
        </mxCell>
        <mxCell id="lCDzhk1fqNKbVMKusiZE-68" value="" style="ellipse;whiteSpace=wrap;html=1;aspect=fixed;" vertex="1" parent="1">
          <mxGeometry x="3100.5" y="252" width="10" height="10" as="geometry" />
        </mxCell>
        <mxCell id="lCDzhk1fqNKbVMKusiZE-69" value="Lorem" style="text;html=1;align=center;verticalAlign=middle;whiteSpace=wrap;rounded=0;" vertex="1" parent="1">
          <mxGeometry x="3106.5" y="242" width="60" height="30" as="geometry" />
        </mxCell>
        <mxCell id="lCDzhk1fqNKbVMKusiZE-71" value="" style="rounded=1;whiteSpace=wrap;html=1;" vertex="1" parent="1">
          <mxGeometry x="3075" y="232" width="246" height="188" as="geometry" />
        </mxCell>
        <mxCell id="lCDzhk1fqNKbVMKusiZE-72" value="1" style="rounded=0;whiteSpace=wrap;html=1;" vertex="1" parent="1">
          <mxGeometry x="3092.5" y="258" width="31" height="26" as="geometry" />
        </mxCell>
        <mxCell id="lCDzhk1fqNKbVMKusiZE-73" value="Comensales" style="text;html=1;align=left;verticalAlign=middle;whiteSpace=wrap;rounded=0;" vertex="1" parent="1">
          <mxGeometry x="3092.5" y="240" width="60" height="12" as="geometry" />
        </mxCell>
        <mxCell id="lCDzhk1fqNKbVMKusiZE-74" value="2" style="rounded=0;whiteSpace=wrap;html=1;fillColor=#ffe6cc;strokeColor=#d79b00;" vertex="1" parent="1">
          <mxGeometry x="3131.5" y="258" width="31" height="26" as="geometry" />
        </mxCell>
        <mxCell id="lCDzhk1fqNKbVMKusiZE-75" value="3" style="rounded=0;whiteSpace=wrap;html=1;" vertex="1" parent="1">
          <mxGeometry x="3168.5" y="258" width="31" height="26" as="geometry" />
        </mxCell>
        <mxCell id="lCDzhk1fqNKbVMKusiZE-76" value="+" style="rounded=1;whiteSpace=wrap;html=1;fillColor=default;arcSize=50;" vertex="1" parent="1">
          <mxGeometry x="3272.5" y="257" width="31" height="25" as="geometry" />
        </mxCell>
        <mxCell id="lCDzhk1fqNKbVMKusiZE-77" value="" style="shape=process;whiteSpace=wrap;html=1;backgroundOutline=1;" vertex="1" parent="1">
          <mxGeometry x="3095" y="301" width="202.5" height="85" as="geometry" />
        </mxCell>
        <mxCell id="lCDzhk1fqNKbVMKusiZE-78" value="&lt;ul&gt;&lt;li&gt;Lorem&amp;nbsp; (+)&lt;/li&gt;&lt;li&gt;Lorem&amp;nbsp; (+)&lt;/li&gt;&lt;li&gt;Lorem&amp;nbsp; (+)&lt;/li&gt;&lt;/ul&gt;" style="text;html=1;align=left;verticalAlign=middle;whiteSpace=wrap;rounded=0;" vertex="1" parent="1">
          <mxGeometry x="3115.5" y="316" width="145" height="30" as="geometry" />
        </mxCell>
        <mxCell id="lCDzhk1fqNKbVMKusiZE-79" value="" style="triangle;whiteSpace=wrap;html=1;" vertex="1" parent="1">
          <mxGeometry x="3221.5" y="314" width="8" height="8.5" as="geometry" />
        </mxCell>
        <mxCell id="lCDzhk1fqNKbVMKusiZE-80" value="" style="triangle;whiteSpace=wrap;html=1;" vertex="1" parent="1">
          <mxGeometry x="3221.5" y="329" width="8" height="8.5" as="geometry" />
        </mxCell>
        <mxCell id="lCDzhk1fqNKbVMKusiZE-81" value="" style="triangle;whiteSpace=wrap;html=1;" vertex="1" parent="1">
          <mxGeometry x="3221.5" y="343" width="8" height="8.5" as="geometry" />
        </mxCell>
        <mxCell id="lCDzhk1fqNKbVMKusiZE-82" value="Parrilla" style="rounded=1;whiteSpace=wrap;html=1;fillColor=#fff2cc;strokeColor=#d6b656;" vertex="1" parent="1">
          <mxGeometry x="3092.5" y="1" width="47.5" height="15" as="geometry" />
        </mxCell>
        <mxCell id="lCDzhk1fqNKbVMKusiZE-83" value="Bebidas firas" style="rounded=1;whiteSpace=wrap;html=1;" vertex="1" parent="1">
          <mxGeometry x="3150" y="1" width="76" height="16" as="geometry" />
        </mxCell>
        <mxCell id="lCDzhk1fqNKbVMKusiZE-84" value="Bebidas calientes" style="rounded=1;whiteSpace=wrap;html=1;" vertex="1" parent="1">
          <mxGeometry x="3092.5" y="25" width="98" height="16" as="geometry" />
        </mxCell>
        <mxCell id="lCDzhk1fqNKbVMKusiZE-85" value="Picar" style="rounded=1;whiteSpace=wrap;html=1;" vertex="1" parent="1">
          <mxGeometry x="3235" y="2" width="47.5" height="15" as="geometry" />
        </mxCell>
        <mxCell id="lCDzhk1fqNKbVMKusiZE-86" value="Licores" style="rounded=1;whiteSpace=wrap;html=1;" vertex="1" parent="1">
          <mxGeometry x="3199.5" y="25" width="98" height="16" as="geometry" />
        </mxCell>
        <mxCell id="lCDzhk1fqNKbVMKusiZE-87" value="Punta de anca x400g" style="rounded=0;whiteSpace=wrap;html=1;align=left;" vertex="1" parent="1">
          <mxGeometry x="3089.5" y="59" width="212.5" height="49" as="geometry" />
        </mxCell>
        <mxCell id="lCDzhk1fqNKbVMKusiZE-88" value="&lt;span style=&quot;line-height: 20%;&quot;&gt;&lt;font style=&quot;font-size: 6px;&quot;&gt;Acompañado de platano maduro, ensalada y papa con guacamoles&lt;/font&gt;&lt;/span&gt;" style="text;html=1;align=left;verticalAlign=top;whiteSpace=wrap;rounded=0;spacing=0;" vertex="1" parent="1">
          <mxGeometry x="3092.5" y="85" width="187.5" height="21" as="geometry" />
        </mxCell>
        <mxCell id="lCDzhk1fqNKbVMKusiZE-92" value="Punta de anca x400g" style="rounded=0;whiteSpace=wrap;html=1;align=left;" vertex="1" parent="1">
          <mxGeometry x="3089.5" y="125" width="212.5" height="49" as="geometry" />
        </mxCell>
        <mxCell id="lCDzhk1fqNKbVMKusiZE-91" value="&lt;span style=&quot;line-height: 20%;&quot;&gt;&lt;font style=&quot;font-size: 6px;&quot;&gt;Acompañado de platano maduro, ensalada y papa con guacamoles&lt;/font&gt;&lt;/span&gt;" style="text;html=1;align=left;verticalAlign=top;whiteSpace=wrap;rounded=0;spacing=0;" vertex="1" parent="1">
          <mxGeometry x="3092.5" y="151" width="187.5" height="21" as="geometry" />
        </mxCell>
        <mxCell id="lCDzhk1fqNKbVMKusiZE-93" value="" style="rounded=0;whiteSpace=wrap;html=1;" vertex="1" parent="1">
          <mxGeometry x="3434.5" y="-61" width="245" height="400.5" as="geometry" />
        </mxCell>
        <mxCell id="lCDzhk1fqNKbVMKusiZE-94" value="" style="rounded=1;whiteSpace=wrap;html=1;" vertex="1" parent="1">
          <mxGeometry x="3435.5" y="-32" width="245" height="365" as="geometry" />
        </mxCell>
        <mxCell id="lCDzhk1fqNKbVMKusiZE-95" value="" style="rounded=0;whiteSpace=wrap;html=1;strokeColor=none;" vertex="1" parent="1">
          <mxGeometry x="3435.5" y="279" width="243" height="60" as="geometry" />
        </mxCell>
        <mxCell id="lCDzhk1fqNKbVMKusiZE-96" value="Menu" style="text;html=1;align=center;verticalAlign=middle;whiteSpace=wrap;rounded=0;fontStyle=1;horizontal=1;fillColor=none;strokeColor=none;" vertex="1" parent="1">
          <mxGeometry x="3448.5" y="-56" width="60" height="30" as="geometry" />
        </mxCell>
        <mxCell id="lCDzhk1fqNKbVMKusiZE-97" value="Carta" style="text;html=1;align=center;verticalAlign=middle;whiteSpace=wrap;rounded=0;fontStyle=1" vertex="1" parent="1">
          <mxGeometry x="3498.5" y="-56" width="60" height="30" as="geometry" />
        </mxCell>
        <mxCell id="lCDzhk1fqNKbVMKusiZE-98" value="Pedidos" style="text;html=1;align=center;verticalAlign=middle;whiteSpace=wrap;rounded=0;fontStyle=5" vertex="1" parent="1">
          <mxGeometry x="3552.5" y="-56" width="60" height="30" as="geometry" />
        </mxCell>
        <mxCell id="lCDzhk1fqNKbVMKusiZE-99" value="" style="endArrow=none;html=1;rounded=0;fontSize=12;startSize=8;endSize=8;curved=1;strokeWidth=4;strokeColor=#4E4E4E;" edge="1" parent="1">
          <mxGeometry width="50" height="50" relative="1" as="geometry">
            <mxPoint x="3637.5" y="-37" as="sourcePoint" />
            <mxPoint x="3661.5" y="-37.10000000000003" as="targetPoint" />
          </mxGeometry>
        </mxCell>
        <mxCell id="lCDzhk1fqNKbVMKusiZE-100" value="" style="endArrow=none;html=1;rounded=0;fontSize=12;startSize=8;endSize=8;curved=1;strokeWidth=4;strokeColor=#4E4E4E;" edge="1" parent="1">
          <mxGeometry width="50" height="50" relative="1" as="geometry">
            <mxPoint x="3637.5" y="-47" as="sourcePoint" />
            <mxPoint x="3661.5" y="-46.920000000000016" as="targetPoint" />
          </mxGeometry>
        </mxCell>
        <mxCell id="lCDzhk1fqNKbVMKusiZE-101" value="Lorem" style="text;html=1;align=center;verticalAlign=middle;whiteSpace=wrap;rounded=0;" vertex="1" parent="1">
          <mxGeometry x="3465.5" y="261" width="60" height="30" as="geometry" />
        </mxCell>
        <mxCell id="lCDzhk1fqNKbVMKusiZE-102" value="" style="ellipse;whiteSpace=wrap;html=1;aspect=fixed;" vertex="1" parent="1">
          <mxGeometry x="3459.5" y="271" width="10" height="10" as="geometry" />
        </mxCell>
        <mxCell id="lCDzhk1fqNKbVMKusiZE-103" value="Lorem" style="text;html=1;align=center;verticalAlign=middle;whiteSpace=wrap;rounded=0;" vertex="1" parent="1">
          <mxGeometry x="3465.5" y="221" width="60" height="30" as="geometry" />
        </mxCell>
        <mxCell id="lCDzhk1fqNKbVMKusiZE-104" value="" style="ellipse;whiteSpace=wrap;html=1;aspect=fixed;" vertex="1" parent="1">
          <mxGeometry x="3459.5" y="231" width="10" height="10" as="geometry" />
        </mxCell>
        <mxCell id="lCDzhk1fqNKbVMKusiZE-105" value="" style="ellipse;whiteSpace=wrap;html=1;aspect=fixed;" vertex="1" parent="1">
          <mxGeometry x="3459.5" y="251" width="10" height="10" as="geometry" />
        </mxCell>
        <mxCell id="lCDzhk1fqNKbVMKusiZE-106" value="Lorem" style="text;html=1;align=center;verticalAlign=middle;whiteSpace=wrap;rounded=0;" vertex="1" parent="1">
          <mxGeometry x="3465.5" y="241" width="60" height="30" as="geometry" />
        </mxCell>
        <mxCell id="lCDzhk1fqNKbVMKusiZE-107" value="" style="rounded=1;whiteSpace=wrap;html=1;" vertex="1" parent="1">
          <mxGeometry x="3434" y="231" width="246" height="188" as="geometry" />
        </mxCell>
        <mxCell id="lCDzhk1fqNKbVMKusiZE-108" value="1" style="rounded=0;whiteSpace=wrap;html=1;fillColor=#ffe6cc;strokeColor=#d79b00;" vertex="1" parent="1">
          <mxGeometry x="3451.5" y="257" width="31" height="26" as="geometry" />
        </mxCell>
        <mxCell id="lCDzhk1fqNKbVMKusiZE-109" value="Comensales" style="text;html=1;align=left;verticalAlign=middle;whiteSpace=wrap;rounded=0;" vertex="1" parent="1">
          <mxGeometry x="3451.5" y="239" width="60" height="12" as="geometry" />
        </mxCell>
        <mxCell id="lCDzhk1fqNKbVMKusiZE-110" value="2" style="rounded=0;whiteSpace=wrap;html=1;" vertex="1" parent="1">
          <mxGeometry x="3490.5" y="257" width="31" height="26" as="geometry" />
        </mxCell>
        <mxCell id="lCDzhk1fqNKbVMKusiZE-111" value="3" style="rounded=0;whiteSpace=wrap;html=1;" vertex="1" parent="1">
          <mxGeometry x="3527.5" y="257" width="31" height="26" as="geometry" />
        </mxCell>
        <mxCell id="lCDzhk1fqNKbVMKusiZE-112" value="+" style="rounded=1;whiteSpace=wrap;html=1;fillColor=default;arcSize=50;" vertex="1" parent="1">
          <mxGeometry x="3631.5" y="256" width="31" height="25" as="geometry" />
        </mxCell>
        <mxCell id="lCDzhk1fqNKbVMKusiZE-113" value="" style="shape=process;whiteSpace=wrap;html=1;backgroundOutline=1;" vertex="1" parent="1">
          <mxGeometry x="3454" y="300" width="202.5" height="85" as="geometry" />
        </mxCell>
        <mxCell id="lCDzhk1fqNKbVMKusiZE-114" value="&lt;ul&gt;&lt;li&gt;Lorem&amp;nbsp; (+)&lt;/li&gt;&lt;li&gt;Lorem&amp;nbsp; (+)&lt;/li&gt;&lt;li&gt;Lorem&amp;nbsp; (+)&lt;/li&gt;&lt;/ul&gt;" style="text;html=1;align=left;verticalAlign=middle;whiteSpace=wrap;rounded=0;" vertex="1" parent="1">
          <mxGeometry x="3474.5" y="315" width="145" height="30" as="geometry" />
        </mxCell>
        <mxCell id="lCDzhk1fqNKbVMKusiZE-115" value="" style="triangle;whiteSpace=wrap;html=1;" vertex="1" parent="1">
          <mxGeometry x="3580.5" y="313" width="8" height="8.5" as="geometry" />
        </mxCell>
        <mxCell id="lCDzhk1fqNKbVMKusiZE-116" value="" style="triangle;whiteSpace=wrap;html=1;" vertex="1" parent="1">
          <mxGeometry x="3580.5" y="328" width="8" height="8.5" as="geometry" />
        </mxCell>
        <mxCell id="lCDzhk1fqNKbVMKusiZE-117" value="" style="triangle;whiteSpace=wrap;html=1;" vertex="1" parent="1">
          <mxGeometry x="3580.5" y="342" width="8" height="8.5" as="geometry" />
        </mxCell>
        <mxCell id="lCDzhk1fqNKbVMKusiZE-118" value="Mios" style="rounded=1;whiteSpace=wrap;html=1;fillColor=#fff2cc;strokeColor=#d6b656;" vertex="1" parent="1">
          <mxGeometry x="3451.5" width="47.5" height="15" as="geometry" />
        </mxCell>
        <mxCell id="lCDzhk1fqNKbVMKusiZE-119" value="Otros" style="rounded=1;whiteSpace=wrap;html=1;" vertex="1" parent="1">
          <mxGeometry x="3509" width="51" height="16" as="geometry" />
        </mxCell>
        <mxCell id="lCDzhk1fqNKbVMKusiZE-121" value="&amp;nbsp;Mesa" style="rounded=1;whiteSpace=wrap;html=1;align=left;" vertex="1" parent="1">
          <mxGeometry x="3586" y="1" width="55.5" height="15" as="geometry" />
        </mxCell>
        <mxCell id="lCDzhk1fqNKbVMKusiZE-123" value="Mesa #4" style="rounded=0;whiteSpace=wrap;html=1;align=left;fillColor=#fff2cc;strokeColor=#d6b656;" vertex="1" parent="1">
          <mxGeometry x="3448.5" y="58" width="212.5" height="49" as="geometry" />
        </mxCell>
        <mxCell id="lCDzhk1fqNKbVMKusiZE-124" value="&lt;span style=&quot;line-height: 20%;&quot;&gt;&lt;font style=&quot;font-size: 6px;&quot;&gt;3 comensales, preparacion de cocina&lt;/font&gt;&lt;/span&gt;" style="text;html=1;align=left;verticalAlign=top;whiteSpace=wrap;rounded=0;spacing=0;" vertex="1" parent="1">
          <mxGeometry x="3451.5" y="84" width="187.5" height="21" as="geometry" />
        </mxCell>
        <mxCell id="lCDzhk1fqNKbVMKusiZE-125" value="Mesa #8" style="rounded=0;whiteSpace=wrap;html=1;align=left;" vertex="1" parent="1">
          <mxGeometry x="3448.5" y="124" width="212.5" height="49" as="geometry" />
        </mxCell>
        <mxCell id="lCDzhk1fqNKbVMKusiZE-126" value="&lt;span style=&quot;line-height: 20%;&quot;&gt;&lt;font style=&quot;font-size: 6px;&quot;&gt;1 comensal, preparacion en zona bar&lt;/font&gt;&lt;/span&gt;" style="text;html=1;align=left;verticalAlign=top;whiteSpace=wrap;rounded=0;spacing=0;" vertex="1" parent="1">
          <mxGeometry x="3451.5" y="150" width="187.5" height="21" as="geometry" />
        </mxCell>
        <mxCell id="lCDzhk1fqNKbVMKusiZE-130" value="Hacer pedido" style="rounded=1;whiteSpace=wrap;html=1;fillColor=#d5e8d4;strokeColor=#82b366;" vertex="1" parent="1">
          <mxGeometry x="2799.5" y="391" width="83.5" height="21" as="geometry" />
        </mxCell>
        <mxCell id="lCDzhk1fqNKbVMKusiZE-131" value="Hacer pedido" style="rounded=1;whiteSpace=wrap;html=1;fillColor=#d5e8d4;strokeColor=#82b366;" vertex="1" parent="1">
          <mxGeometry x="3151.5" y="393" width="83.5" height="21" as="geometry" />
        </mxCell>
        <mxCell id="lCDzhk1fqNKbVMKusiZE-132" value="Actualizar" style="rounded=1;whiteSpace=wrap;html=1;fillColor=#d5e8d4;strokeColor=#82b366;" vertex="1" parent="1">
          <mxGeometry x="3488" y="397" width="69.5" height="14" as="geometry" />
        </mxCell>
        <mxCell id="lCDzhk1fqNKbVMKusiZE-133" value="" style="triangle;whiteSpace=wrap;html=1;" vertex="1" parent="1">
          <mxGeometry x="3628" y="3.5" width="8" height="11" as="geometry" />
        </mxCell>
        <mxCell id="lCDzhk1fqNKbVMKusiZE-136" value="-" style="rounded=1;whiteSpace=wrap;html=1;fillColor=default;arcSize=50;" vertex="1" parent="1">
          <mxGeometry x="3597" y="256" width="31" height="25" as="geometry" />
        </mxCell>
        <mxCell id="lCDzhk1fqNKbVMKusiZE-137" value="-" style="rounded=1;whiteSpace=wrap;html=1;fillColor=default;arcSize=50;" vertex="1" parent="1">
          <mxGeometry x="3238" y="256" width="31" height="25" as="geometry" />
        </mxCell>
        <mxCell id="lCDzhk1fqNKbVMKusiZE-138" value="-" style="rounded=1;whiteSpace=wrap;html=1;fillColor=default;arcSize=50;" vertex="1" parent="1">
          <mxGeometry x="2885" y="256" width="31" height="25" as="geometry" />
        </mxCell>
        <mxCell id="lCDzhk1fqNKbVMKusiZE-139" value="&lt;font style=&quot;font-size: 72px;&quot;&gt;Panel Worker+bar&lt;/font&gt;" style="text;html=1;align=left;verticalAlign=middle;whiteSpace=wrap;rounded=0;fontStyle=1;fontSize=90;" vertex="1" parent="1">
          <mxGeometry x="2796.5" y="578" width="716.5" height="113" as="geometry" />
        </mxCell>
        <mxCell id="lCDzhk1fqNKbVMKusiZE-140" value="" style="rounded=0;whiteSpace=wrap;html=1;fillColor=#f5f5f5;fontColor=#333333;strokeColor=#666666;" vertex="1" parent="1">
          <mxGeometry x="2740" y="743" width="245" height="400.5" as="geometry" />
        </mxCell>
        <mxCell id="lCDzhk1fqNKbVMKusiZE-141" value="" style="rounded=1;whiteSpace=wrap;html=1;fillColor=#f5f5f5;fontColor=#333333;strokeColor=#666666;" vertex="1" parent="1">
          <mxGeometry x="2740" y="778" width="245" height="365" as="geometry" />
        </mxCell>
        <mxCell id="lCDzhk1fqNKbVMKusiZE-142" value="" style="rounded=0;whiteSpace=wrap;html=1;strokeColor=#666666;fillColor=#f5f5f5;fontColor=#333333;" vertex="1" parent="1">
          <mxGeometry x="2741" y="1083" width="243" height="60" as="geometry" />
        </mxCell>
        <mxCell id="lCDzhk1fqNKbVMKusiZE-143" value="Menu" style="text;html=1;align=center;verticalAlign=middle;whiteSpace=wrap;rounded=0;fontStyle=5;horizontal=1;fillColor=#f5f5f5;strokeColor=#666666;fontColor=#333333;" vertex="1" parent="1">
          <mxGeometry x="2754" y="748" width="60" height="30" as="geometry" />
        </mxCell>
        <mxCell id="lCDzhk1fqNKbVMKusiZE-144" value="Carta" style="text;html=1;align=center;verticalAlign=middle;whiteSpace=wrap;rounded=0;fontStyle=1;fillColor=#f5f5f5;fontColor=#333333;strokeColor=#666666;" vertex="1" parent="1">
          <mxGeometry x="2804" y="748" width="60" height="30" as="geometry" />
        </mxCell>
        <mxCell id="lCDzhk1fqNKbVMKusiZE-145" value="Pedidos" style="text;html=1;align=center;verticalAlign=middle;whiteSpace=wrap;rounded=0;fontStyle=1;fillColor=#f5f5f5;fontColor=#333333;strokeColor=#666666;" vertex="1" parent="1">
          <mxGeometry x="2858" y="748" width="60" height="30" as="geometry" />
        </mxCell>
        <mxCell id="lCDzhk1fqNKbVMKusiZE-146" value="" style="endArrow=none;html=1;rounded=0;fontSize=12;startSize=8;endSize=8;curved=1;strokeWidth=4;strokeColor=#666666;fillColor=#f5f5f5;" edge="1" parent="1">
          <mxGeometry width="50" height="50" relative="1" as="geometry">
            <mxPoint x="2943" y="767" as="sourcePoint" />
            <mxPoint x="2967" y="766.9" as="targetPoint" />
          </mxGeometry>
        </mxCell>
        <mxCell id="lCDzhk1fqNKbVMKusiZE-147" value="" style="endArrow=none;html=1;rounded=0;fontSize=12;startSize=8;endSize=8;curved=1;strokeWidth=4;strokeColor=#666666;fillColor=#f5f5f5;" edge="1" parent="1">
          <mxGeometry width="50" height="50" relative="1" as="geometry">
            <mxPoint x="2943" y="757" as="sourcePoint" />
            <mxPoint x="2967" y="757.0799999999999" as="targetPoint" />
          </mxGeometry>
        </mxCell>
        <mxCell id="lCDzhk1fqNKbVMKusiZE-148" value="" style="ellipse;whiteSpace=wrap;html=1;aspect=fixed;fillColor=#f5f5f5;fontColor=#333333;strokeColor=#666666;" vertex="1" parent="1">
          <mxGeometry x="2761" y="839" width="10" height="10" as="geometry" />
        </mxCell>
        <mxCell id="lCDzhk1fqNKbVMKusiZE-149" value="Lorem" style="text;html=1;align=center;verticalAlign=middle;whiteSpace=wrap;rounded=0;fillColor=#f5f5f5;fontColor=#333333;strokeColor=#666666;" vertex="1" parent="1">
          <mxGeometry x="2767" y="829" width="60" height="30" as="geometry" />
        </mxCell>
        <mxCell id="lCDzhk1fqNKbVMKusiZE-150" value="Sopas" style="text;html=1;align=center;verticalAlign=middle;whiteSpace=wrap;rounded=0;fontStyle=1;fillColor=#f5f5f5;fontColor=#333333;strokeColor=#666666;" vertex="1" parent="1">
          <mxGeometry x="2744" y="805" width="60" height="30" as="geometry" />
        </mxCell>
        <mxCell id="lCDzhk1fqNKbVMKusiZE-151" value="Lorem" style="text;html=1;align=center;verticalAlign=middle;whiteSpace=wrap;rounded=0;fillColor=#f5f5f5;fontColor=#333333;strokeColor=#666666;" vertex="1" parent="1">
          <mxGeometry x="2767" y="868" width="60" height="11" as="geometry" />
        </mxCell>
        <mxCell id="lCDzhk1fqNKbVMKusiZE-152" value="" style="ellipse;whiteSpace=wrap;html=1;aspect=fixed;fillColor=#f5f5f5;fontColor=#333333;strokeColor=#666666;" vertex="1" parent="1">
          <mxGeometry x="2761" y="859" width="10" height="10" as="geometry" />
        </mxCell>
        <mxCell id="lCDzhk1fqNKbVMKusiZE-153" value="Lorem" style="text;html=1;align=center;verticalAlign=middle;whiteSpace=wrap;rounded=0;fillColor=#f5f5f5;fontColor=#333333;strokeColor=#666666;" vertex="1" parent="1">
          <mxGeometry x="2767" y="869" width="60" height="30" as="geometry" />
        </mxCell>
        <mxCell id="lCDzhk1fqNKbVMKusiZE-154" value="" style="ellipse;whiteSpace=wrap;html=1;aspect=fixed;fillColor=#f5f5f5;fontColor=#333333;strokeColor=#666666;" vertex="1" parent="1">
          <mxGeometry x="2761" y="879" width="10" height="10" as="geometry" />
        </mxCell>
        <mxCell id="lCDzhk1fqNKbVMKusiZE-155" value="Lorem" style="text;html=1;align=center;verticalAlign=middle;whiteSpace=wrap;rounded=0;fillColor=#f5f5f5;fontColor=#333333;strokeColor=#666666;" vertex="1" parent="1">
          <mxGeometry x="2765.5" y="963" width="60" height="30" as="geometry" />
        </mxCell>
        <mxCell id="lCDzhk1fqNKbVMKusiZE-156" value="" style="ellipse;whiteSpace=wrap;html=1;aspect=fixed;fillColor=#f5f5f5;fontColor=#333333;strokeColor=#666666;" vertex="1" parent="1">
          <mxGeometry x="2759.5" y="973" width="10" height="10" as="geometry" />
        </mxCell>
        <mxCell id="lCDzhk1fqNKbVMKusiZE-157" value="Lorem" style="text;html=1;align=center;verticalAlign=middle;whiteSpace=wrap;rounded=0;fillColor=#f5f5f5;fontColor=#333333;strokeColor=#666666;" vertex="1" parent="1">
          <mxGeometry x="2765.5" y="923" width="60" height="30" as="geometry" />
        </mxCell>
        <mxCell id="lCDzhk1fqNKbVMKusiZE-158" value="" style="ellipse;whiteSpace=wrap;html=1;aspect=fixed;fillColor=#f5f5f5;fontColor=#333333;strokeColor=#666666;" vertex="1" parent="1">
          <mxGeometry x="2759.5" y="933" width="10" height="10" as="geometry" />
        </mxCell>
        <mxCell id="lCDzhk1fqNKbVMKusiZE-159" value="" style="ellipse;whiteSpace=wrap;html=1;aspect=fixed;fillColor=#f5f5f5;fontColor=#333333;strokeColor=#666666;" vertex="1" parent="1">
          <mxGeometry x="2759.5" y="953" width="10" height="10" as="geometry" />
        </mxCell>
        <mxCell id="lCDzhk1fqNKbVMKusiZE-160" value="Lorem" style="text;html=1;align=center;verticalAlign=middle;whiteSpace=wrap;rounded=0;fillColor=#f5f5f5;fontColor=#333333;strokeColor=#666666;" vertex="1" parent="1">
          <mxGeometry x="2765.5" y="943" width="60" height="30" as="geometry" />
        </mxCell>
        <mxCell id="lCDzhk1fqNKbVMKusiZE-161" value="Principios" style="text;html=1;align=center;verticalAlign=middle;whiteSpace=wrap;rounded=0;fontStyle=1;fillColor=#f5f5f5;fontColor=#333333;strokeColor=#666666;" vertex="1" parent="1">
          <mxGeometry x="2753.5" y="899" width="60" height="30" as="geometry" />
        </mxCell>
        <mxCell id="lCDzhk1fqNKbVMKusiZE-162" value="Lorem" style="text;html=1;align=center;verticalAlign=middle;whiteSpace=wrap;rounded=0;fillColor=#f5f5f5;fontColor=#333333;strokeColor=#666666;" vertex="1" parent="1">
          <mxGeometry x="2771" y="1065" width="60" height="30" as="geometry" />
        </mxCell>
        <mxCell id="lCDzhk1fqNKbVMKusiZE-163" value="" style="ellipse;whiteSpace=wrap;html=1;aspect=fixed;fillColor=#f5f5f5;fontColor=#333333;strokeColor=#666666;" vertex="1" parent="1">
          <mxGeometry x="2765" y="1075" width="10" height="10" as="geometry" />
        </mxCell>
        <mxCell id="lCDzhk1fqNKbVMKusiZE-164" value="Lorem" style="text;html=1;align=center;verticalAlign=middle;whiteSpace=wrap;rounded=0;fillColor=#f5f5f5;fontColor=#333333;strokeColor=#666666;" vertex="1" parent="1">
          <mxGeometry x="2771" y="1025" width="60" height="30" as="geometry" />
        </mxCell>
        <mxCell id="lCDzhk1fqNKbVMKusiZE-165" value="" style="ellipse;whiteSpace=wrap;html=1;aspect=fixed;fillColor=#f5f5f5;fontColor=#333333;strokeColor=#666666;" vertex="1" parent="1">
          <mxGeometry x="2765" y="1035" width="10" height="10" as="geometry" />
        </mxCell>
        <mxCell id="lCDzhk1fqNKbVMKusiZE-166" value="" style="ellipse;whiteSpace=wrap;html=1;aspect=fixed;fillColor=#f5f5f5;fontColor=#333333;strokeColor=#666666;" vertex="1" parent="1">
          <mxGeometry x="2765" y="1055" width="10" height="10" as="geometry" />
        </mxCell>
        <mxCell id="lCDzhk1fqNKbVMKusiZE-167" value="Lorem" style="text;html=1;align=center;verticalAlign=middle;whiteSpace=wrap;rounded=0;fillColor=#f5f5f5;fontColor=#333333;strokeColor=#666666;" vertex="1" parent="1">
          <mxGeometry x="2771" y="1045" width="60" height="30" as="geometry" />
        </mxCell>
        <mxCell id="lCDzhk1fqNKbVMKusiZE-168" value="Proteinas" style="text;html=1;align=center;verticalAlign=middle;whiteSpace=wrap;rounded=0;fontStyle=1;fillColor=#f5f5f5;fontColor=#333333;strokeColor=#666666;" vertex="1" parent="1">
          <mxGeometry x="2754" y="1000" width="60" height="30" as="geometry" />
        </mxCell>
        <mxCell id="lCDzhk1fqNKbVMKusiZE-169" value="" style="rounded=1;whiteSpace=wrap;html=1;fillColor=#f5f5f5;fontColor=#333333;strokeColor=#666666;" vertex="1" parent="1">
          <mxGeometry x="2739.5" y="1035" width="246" height="188" as="geometry" />
        </mxCell>
        <mxCell id="lCDzhk1fqNKbVMKusiZE-170" value="1" style="rounded=0;whiteSpace=wrap;html=1;fillColor=#f5f5f5;strokeColor=#666666;fontColor=#333333;" vertex="1" parent="1">
          <mxGeometry x="2757" y="1061" width="31" height="26" as="geometry" />
        </mxCell>
        <mxCell id="lCDzhk1fqNKbVMKusiZE-171" value="Comensales" style="text;html=1;align=left;verticalAlign=middle;whiteSpace=wrap;rounded=0;fillColor=#f5f5f5;fontColor=#333333;strokeColor=#666666;" vertex="1" parent="1">
          <mxGeometry x="2757" y="1043" width="60" height="12" as="geometry" />
        </mxCell>
        <mxCell id="lCDzhk1fqNKbVMKusiZE-172" value="2" style="rounded=0;whiteSpace=wrap;html=1;fillColor=#f5f5f5;fontColor=#333333;strokeColor=#666666;" vertex="1" parent="1">
          <mxGeometry x="2796" y="1061" width="31" height="26" as="geometry" />
        </mxCell>
        <mxCell id="lCDzhk1fqNKbVMKusiZE-173" value="3" style="rounded=0;whiteSpace=wrap;html=1;fillColor=#f5f5f5;fontColor=#333333;strokeColor=#666666;" vertex="1" parent="1">
          <mxGeometry x="2833" y="1061" width="31" height="26" as="geometry" />
        </mxCell>
        <mxCell id="lCDzhk1fqNKbVMKusiZE-174" value="+" style="rounded=1;whiteSpace=wrap;html=1;fillColor=#f5f5f5;arcSize=50;fontColor=#333333;strokeColor=#666666;" vertex="1" parent="1">
          <mxGeometry x="2937" y="1060" width="31" height="25" as="geometry" />
        </mxCell>
        <mxCell id="lCDzhk1fqNKbVMKusiZE-175" value="" style="shape=process;whiteSpace=wrap;html=1;backgroundOutline=1;fillColor=#f5f5f5;fontColor=#333333;strokeColor=#666666;" vertex="1" parent="1">
          <mxGeometry x="2759.5" y="1104" width="202.5" height="85" as="geometry" />
        </mxCell>
        <mxCell id="lCDzhk1fqNKbVMKusiZE-176" value="&lt;ul&gt;&lt;li&gt;Lorem&amp;nbsp; (+)&lt;/li&gt;&lt;li&gt;Lorem&amp;nbsp; (+)&lt;/li&gt;&lt;li&gt;Lorem&amp;nbsp; (+)&lt;/li&gt;&lt;/ul&gt;" style="text;html=1;align=left;verticalAlign=middle;whiteSpace=wrap;rounded=0;fillColor=#f5f5f5;fontColor=#333333;strokeColor=#666666;" vertex="1" parent="1">
          <mxGeometry x="2780" y="1119" width="145" height="30" as="geometry" />
        </mxCell>
        <mxCell id="lCDzhk1fqNKbVMKusiZE-177" value="" style="triangle;whiteSpace=wrap;html=1;fillColor=#f5f5f5;fontColor=#333333;strokeColor=#666666;" vertex="1" parent="1">
          <mxGeometry x="2886" y="1117" width="8" height="8.5" as="geometry" />
        </mxCell>
        <mxCell id="lCDzhk1fqNKbVMKusiZE-178" value="" style="triangle;whiteSpace=wrap;html=1;fillColor=#f5f5f5;fontColor=#333333;strokeColor=#666666;" vertex="1" parent="1">
          <mxGeometry x="2886" y="1132" width="8" height="8.5" as="geometry" />
        </mxCell>
        <mxCell id="lCDzhk1fqNKbVMKusiZE-179" value="" style="triangle;whiteSpace=wrap;html=1;fillColor=#f5f5f5;fontColor=#333333;strokeColor=#666666;" vertex="1" parent="1">
          <mxGeometry x="2886" y="1146" width="8" height="8.5" as="geometry" />
        </mxCell>
        <mxCell id="lCDzhk1fqNKbVMKusiZE-180" value="" style="rounded=0;whiteSpace=wrap;html=1;fillColor=#f5f5f5;fontColor=#333333;strokeColor=#666666;" vertex="1" parent="1">
          <mxGeometry x="3093" y="744" width="245" height="400.5" as="geometry" />
        </mxCell>
        <mxCell id="lCDzhk1fqNKbVMKusiZE-181" value="" style="rounded=1;whiteSpace=wrap;html=1;fillColor=#f5f5f5;fontColor=#333333;strokeColor=#666666;" vertex="1" parent="1">
          <mxGeometry x="3094" y="773" width="245" height="365" as="geometry" />
        </mxCell>
        <mxCell id="lCDzhk1fqNKbVMKusiZE-182" value="" style="rounded=0;whiteSpace=wrap;html=1;strokeColor=#666666;fillColor=#f5f5f5;fontColor=#333333;" vertex="1" parent="1">
          <mxGeometry x="3094" y="1084" width="243" height="60" as="geometry" />
        </mxCell>
        <mxCell id="lCDzhk1fqNKbVMKusiZE-183" value="Menu" style="text;html=1;align=center;verticalAlign=middle;whiteSpace=wrap;rounded=0;fontStyle=1;horizontal=1;fillColor=#f5f5f5;strokeColor=#666666;fontColor=#333333;" vertex="1" parent="1">
          <mxGeometry x="3107" y="749" width="60" height="30" as="geometry" />
        </mxCell>
        <mxCell id="lCDzhk1fqNKbVMKusiZE-184" value="Carta" style="text;html=1;align=center;verticalAlign=middle;whiteSpace=wrap;rounded=0;fontStyle=5;fillColor=#f5f5f5;fontColor=#333333;strokeColor=#666666;" vertex="1" parent="1">
          <mxGeometry x="3157" y="749" width="60" height="30" as="geometry" />
        </mxCell>
        <mxCell id="lCDzhk1fqNKbVMKusiZE-185" value="Pedidos" style="text;html=1;align=center;verticalAlign=middle;whiteSpace=wrap;rounded=0;fontStyle=1;fillColor=#f5f5f5;fontColor=#333333;strokeColor=#666666;" vertex="1" parent="1">
          <mxGeometry x="3211" y="749" width="60" height="30" as="geometry" />
        </mxCell>
        <mxCell id="lCDzhk1fqNKbVMKusiZE-186" value="" style="endArrow=none;html=1;rounded=0;fontSize=12;startSize=8;endSize=8;curved=1;strokeWidth=4;strokeColor=#666666;fillColor=#f5f5f5;" edge="1" parent="1">
          <mxGeometry width="50" height="50" relative="1" as="geometry">
            <mxPoint x="3296" y="768" as="sourcePoint" />
            <mxPoint x="3320" y="767.9" as="targetPoint" />
          </mxGeometry>
        </mxCell>
        <mxCell id="lCDzhk1fqNKbVMKusiZE-187" value="" style="endArrow=none;html=1;rounded=0;fontSize=12;startSize=8;endSize=8;curved=1;strokeWidth=4;strokeColor=#666666;fillColor=#f5f5f5;" edge="1" parent="1">
          <mxGeometry width="50" height="50" relative="1" as="geometry">
            <mxPoint x="3296" y="758" as="sourcePoint" />
            <mxPoint x="3320" y="758.0799999999999" as="targetPoint" />
          </mxGeometry>
        </mxCell>
        <mxCell id="lCDzhk1fqNKbVMKusiZE-188" value="Lorem" style="text;html=1;align=center;verticalAlign=middle;whiteSpace=wrap;rounded=0;fillColor=#f5f5f5;fontColor=#333333;strokeColor=#666666;" vertex="1" parent="1">
          <mxGeometry x="3124" y="1066" width="60" height="30" as="geometry" />
        </mxCell>
        <mxCell id="lCDzhk1fqNKbVMKusiZE-189" value="" style="ellipse;whiteSpace=wrap;html=1;aspect=fixed;fillColor=#f5f5f5;fontColor=#333333;strokeColor=#666666;" vertex="1" parent="1">
          <mxGeometry x="3118" y="1076" width="10" height="10" as="geometry" />
        </mxCell>
        <mxCell id="lCDzhk1fqNKbVMKusiZE-190" value="Lorem" style="text;html=1;align=center;verticalAlign=middle;whiteSpace=wrap;rounded=0;fillColor=#f5f5f5;fontColor=#333333;strokeColor=#666666;" vertex="1" parent="1">
          <mxGeometry x="3124" y="1026" width="60" height="30" as="geometry" />
        </mxCell>
        <mxCell id="lCDzhk1fqNKbVMKusiZE-191" value="" style="ellipse;whiteSpace=wrap;html=1;aspect=fixed;fillColor=#f5f5f5;fontColor=#333333;strokeColor=#666666;" vertex="1" parent="1">
          <mxGeometry x="3118" y="1036" width="10" height="10" as="geometry" />
        </mxCell>
        <mxCell id="lCDzhk1fqNKbVMKusiZE-192" value="" style="ellipse;whiteSpace=wrap;html=1;aspect=fixed;fillColor=#f5f5f5;fontColor=#333333;strokeColor=#666666;" vertex="1" parent="1">
          <mxGeometry x="3118" y="1056" width="10" height="10" as="geometry" />
        </mxCell>
        <mxCell id="lCDzhk1fqNKbVMKusiZE-193" value="Lorem" style="text;html=1;align=center;verticalAlign=middle;whiteSpace=wrap;rounded=0;fillColor=#f5f5f5;fontColor=#333333;strokeColor=#666666;" vertex="1" parent="1">
          <mxGeometry x="3124" y="1046" width="60" height="30" as="geometry" />
        </mxCell>
        <mxCell id="lCDzhk1fqNKbVMKusiZE-194" value="" style="rounded=1;whiteSpace=wrap;html=1;fillColor=#f5f5f5;fontColor=#333333;strokeColor=#666666;" vertex="1" parent="1">
          <mxGeometry x="3092.5" y="1036" width="246" height="188" as="geometry" />
        </mxCell>
        <mxCell id="lCDzhk1fqNKbVMKusiZE-195" value="1" style="rounded=0;whiteSpace=wrap;html=1;fillColor=#f5f5f5;fontColor=#333333;strokeColor=#666666;" vertex="1" parent="1">
          <mxGeometry x="3110" y="1062" width="31" height="26" as="geometry" />
        </mxCell>
        <mxCell id="lCDzhk1fqNKbVMKusiZE-196" value="Comensales" style="text;html=1;align=left;verticalAlign=middle;whiteSpace=wrap;rounded=0;fillColor=#f5f5f5;fontColor=#333333;strokeColor=#666666;" vertex="1" parent="1">
          <mxGeometry x="3110" y="1044" width="60" height="12" as="geometry" />
        </mxCell>
        <mxCell id="lCDzhk1fqNKbVMKusiZE-197" value="2" style="rounded=0;whiteSpace=wrap;html=1;fillColor=#f5f5f5;strokeColor=#666666;fontColor=#333333;" vertex="1" parent="1">
          <mxGeometry x="3149" y="1062" width="31" height="26" as="geometry" />
        </mxCell>
        <mxCell id="lCDzhk1fqNKbVMKusiZE-198" value="3" style="rounded=0;whiteSpace=wrap;html=1;fillColor=#f5f5f5;fontColor=#333333;strokeColor=#666666;" vertex="1" parent="1">
          <mxGeometry x="3186" y="1062" width="31" height="26" as="geometry" />
        </mxCell>
        <mxCell id="lCDzhk1fqNKbVMKusiZE-199" value="+" style="rounded=1;whiteSpace=wrap;html=1;fillColor=#f5f5f5;arcSize=50;fontColor=#333333;strokeColor=#666666;" vertex="1" parent="1">
          <mxGeometry x="3290" y="1061" width="31" height="25" as="geometry" />
        </mxCell>
        <mxCell id="lCDzhk1fqNKbVMKusiZE-200" value="" style="shape=process;whiteSpace=wrap;html=1;backgroundOutline=1;fillColor=#f5f5f5;fontColor=#333333;strokeColor=#666666;" vertex="1" parent="1">
          <mxGeometry x="3112.5" y="1105" width="202.5" height="85" as="geometry" />
        </mxCell>
        <mxCell id="lCDzhk1fqNKbVMKusiZE-201" value="&lt;ul&gt;&lt;li&gt;Lorem&amp;nbsp; (+)&lt;/li&gt;&lt;li&gt;Lorem&amp;nbsp; (+)&lt;/li&gt;&lt;li&gt;Lorem&amp;nbsp; (+)&lt;/li&gt;&lt;/ul&gt;" style="text;html=1;align=left;verticalAlign=middle;whiteSpace=wrap;rounded=0;fillColor=#f5f5f5;fontColor=#333333;strokeColor=#666666;" vertex="1" parent="1">
          <mxGeometry x="3133" y="1120" width="145" height="30" as="geometry" />
        </mxCell>
        <mxCell id="lCDzhk1fqNKbVMKusiZE-202" value="" style="triangle;whiteSpace=wrap;html=1;fillColor=#f5f5f5;fontColor=#333333;strokeColor=#666666;" vertex="1" parent="1">
          <mxGeometry x="3239" y="1118" width="8" height="8.5" as="geometry" />
        </mxCell>
        <mxCell id="lCDzhk1fqNKbVMKusiZE-203" value="" style="triangle;whiteSpace=wrap;html=1;fillColor=#f5f5f5;fontColor=#333333;strokeColor=#666666;" vertex="1" parent="1">
          <mxGeometry x="3239" y="1133" width="8" height="8.5" as="geometry" />
        </mxCell>
        <mxCell id="lCDzhk1fqNKbVMKusiZE-204" value="" style="triangle;whiteSpace=wrap;html=1;fillColor=#f5f5f5;fontColor=#333333;strokeColor=#666666;" vertex="1" parent="1">
          <mxGeometry x="3239" y="1147" width="8" height="8.5" as="geometry" />
        </mxCell>
        <mxCell id="lCDzhk1fqNKbVMKusiZE-205" value="Parrilla" style="rounded=1;whiteSpace=wrap;html=1;fillColor=#f5f5f5;strokeColor=#666666;fontColor=#333333;" vertex="1" parent="1">
          <mxGeometry x="3110" y="805" width="47.5" height="15" as="geometry" />
        </mxCell>
        <mxCell id="lCDzhk1fqNKbVMKusiZE-206" value="Bebidas firas" style="rounded=1;whiteSpace=wrap;html=1;fillColor=#f5f5f5;fontColor=#333333;strokeColor=#666666;" vertex="1" parent="1">
          <mxGeometry x="3167.5" y="805" width="76" height="16" as="geometry" />
        </mxCell>
        <mxCell id="lCDzhk1fqNKbVMKusiZE-207" value="Bebidas calientes" style="rounded=1;whiteSpace=wrap;html=1;fillColor=#f5f5f5;fontColor=#333333;strokeColor=#666666;" vertex="1" parent="1">
          <mxGeometry x="3110" y="829" width="98" height="16" as="geometry" />
        </mxCell>
        <mxCell id="lCDzhk1fqNKbVMKusiZE-208" value="Picar" style="rounded=1;whiteSpace=wrap;html=1;fillColor=#f5f5f5;fontColor=#333333;strokeColor=#666666;" vertex="1" parent="1">
          <mxGeometry x="3252.5" y="806" width="47.5" height="15" as="geometry" />
        </mxCell>
        <mxCell id="lCDzhk1fqNKbVMKusiZE-209" value="Licores" style="rounded=1;whiteSpace=wrap;html=1;fillColor=#f5f5f5;fontColor=#333333;strokeColor=#666666;" vertex="1" parent="1">
          <mxGeometry x="3217" y="829" width="98" height="16" as="geometry" />
        </mxCell>
        <mxCell id="lCDzhk1fqNKbVMKusiZE-210" value="Punta de anca x400g" style="rounded=0;whiteSpace=wrap;html=1;align=left;fillColor=#f5f5f5;fontColor=#333333;strokeColor=#666666;" vertex="1" parent="1">
          <mxGeometry x="3107" y="863" width="212.5" height="49" as="geometry" />
        </mxCell>
        <mxCell id="lCDzhk1fqNKbVMKusiZE-211" value="&lt;span style=&quot;line-height: 20%;&quot;&gt;&lt;font style=&quot;font-size: 6px;&quot;&gt;Acompañado de platano maduro, ensalada y papa con guacamoles&lt;/font&gt;&lt;/span&gt;" style="text;html=1;align=left;verticalAlign=top;whiteSpace=wrap;rounded=0;spacing=0;fillColor=#f5f5f5;fontColor=#333333;strokeColor=#666666;" vertex="1" parent="1">
          <mxGeometry x="3110" y="889" width="187.5" height="21" as="geometry" />
        </mxCell>
        <mxCell id="lCDzhk1fqNKbVMKusiZE-212" value="Punta de anca x400g" style="rounded=0;whiteSpace=wrap;html=1;align=left;fillColor=#f5f5f5;fontColor=#333333;strokeColor=#666666;" vertex="1" parent="1">
          <mxGeometry x="3107" y="929" width="212.5" height="49" as="geometry" />
        </mxCell>
        <mxCell id="lCDzhk1fqNKbVMKusiZE-213" value="&lt;span style=&quot;line-height: 20%;&quot;&gt;&lt;font style=&quot;font-size: 6px;&quot;&gt;Acompañado de platano maduro, ensalada y papa con guacamoles&lt;/font&gt;&lt;/span&gt;" style="text;html=1;align=left;verticalAlign=top;whiteSpace=wrap;rounded=0;spacing=0;fillColor=#f5f5f5;fontColor=#333333;strokeColor=#666666;" vertex="1" parent="1">
          <mxGeometry x="3110" y="955" width="187.5" height="21" as="geometry" />
        </mxCell>
        <mxCell id="lCDzhk1fqNKbVMKusiZE-246" value="Hacer pedido" style="rounded=1;whiteSpace=wrap;html=1;fillColor=#f5f5f5;strokeColor=#666666;fontColor=#333333;" vertex="1" parent="1">
          <mxGeometry x="2817" y="1195" width="83.5" height="21" as="geometry" />
        </mxCell>
        <mxCell id="lCDzhk1fqNKbVMKusiZE-247" value="Hacer pedido" style="rounded=1;whiteSpace=wrap;html=1;fillColor=#f5f5f5;strokeColor=#666666;fontColor=#333333;" vertex="1" parent="1">
          <mxGeometry x="3169" y="1197" width="83.5" height="21" as="geometry" />
        </mxCell>
        <mxCell id="lCDzhk1fqNKbVMKusiZE-251" value="-" style="rounded=1;whiteSpace=wrap;html=1;fillColor=#f5f5f5;arcSize=50;fontColor=#333333;strokeColor=#666666;" vertex="1" parent="1">
          <mxGeometry x="3255.5" y="1060" width="31" height="25" as="geometry" />
        </mxCell>
        <mxCell id="lCDzhk1fqNKbVMKusiZE-252" value="-" style="rounded=1;whiteSpace=wrap;html=1;fillColor=#f5f5f5;arcSize=50;fontColor=#333333;strokeColor=#666666;" vertex="1" parent="1">
          <mxGeometry x="2902.5" y="1060" width="31" height="25" as="geometry" />
        </mxCell>
        <mxCell id="lCDzhk1fqNKbVMKusiZE-253" value="Eliminar" style="rounded=1;whiteSpace=wrap;html=1;fillColor=#f8cecc;strokeColor=#b85450;" vertex="1" parent="1">
          <mxGeometry x="3567" y="396.5" width="57.5" height="13.5" as="geometry" />
        </mxCell>
        <mxCell id="lCDzhk1fqNKbVMKusiZE-255" value="" style="rounded=0;whiteSpace=wrap;html=1;" vertex="1" parent="1">
          <mxGeometry x="3432.5" y="743" width="245" height="400.5" as="geometry" />
        </mxCell>
        <mxCell id="lCDzhk1fqNKbVMKusiZE-257" value="" style="rounded=0;whiteSpace=wrap;html=1;strokeColor=none;" vertex="1" parent="1">
          <mxGeometry x="3433.5" y="1083" width="243" height="60" as="geometry" />
        </mxCell>
        <mxCell id="lCDzhk1fqNKbVMKusiZE-258" value="Menu" style="text;html=1;align=center;verticalAlign=middle;whiteSpace=wrap;rounded=0;fontStyle=1;horizontal=1;fillColor=none;strokeColor=none;" vertex="1" parent="1">
          <mxGeometry x="3446.5" y="748" width="60" height="30" as="geometry" />
        </mxCell>
        <mxCell id="lCDzhk1fqNKbVMKusiZE-259" value="Carta" style="text;html=1;align=center;verticalAlign=middle;whiteSpace=wrap;rounded=0;fontStyle=1" vertex="1" parent="1">
          <mxGeometry x="3496.5" y="748" width="60" height="30" as="geometry" />
        </mxCell>
        <mxCell id="lCDzhk1fqNKbVMKusiZE-260" value="Pedidos" style="text;html=1;align=center;verticalAlign=middle;whiteSpace=wrap;rounded=0;fontStyle=5" vertex="1" parent="1">
          <mxGeometry x="3550.5" y="748" width="60" height="30" as="geometry" />
        </mxCell>
        <mxCell id="lCDzhk1fqNKbVMKusiZE-261" value="" style="endArrow=none;html=1;rounded=0;fontSize=12;startSize=8;endSize=8;curved=1;strokeWidth=4;strokeColor=#4E4E4E;" edge="1" parent="1">
          <mxGeometry width="50" height="50" relative="1" as="geometry">
            <mxPoint x="3635.5" y="767" as="sourcePoint" />
            <mxPoint x="3659.5" y="766.9" as="targetPoint" />
          </mxGeometry>
        </mxCell>
        <mxCell id="lCDzhk1fqNKbVMKusiZE-262" value="" style="endArrow=none;html=1;rounded=0;fontSize=12;startSize=8;endSize=8;curved=1;strokeWidth=4;strokeColor=#4E4E4E;" edge="1" parent="1">
          <mxGeometry width="50" height="50" relative="1" as="geometry">
            <mxPoint x="3635.5" y="757" as="sourcePoint" />
            <mxPoint x="3659.5" y="757.0799999999999" as="targetPoint" />
          </mxGeometry>
        </mxCell>
        <mxCell id="lCDzhk1fqNKbVMKusiZE-263" value="Lorem" style="text;html=1;align=center;verticalAlign=middle;whiteSpace=wrap;rounded=0;" vertex="1" parent="1">
          <mxGeometry x="3463.5" y="1065" width="60" height="30" as="geometry" />
        </mxCell>
        <mxCell id="lCDzhk1fqNKbVMKusiZE-264" value="" style="ellipse;whiteSpace=wrap;html=1;aspect=fixed;" vertex="1" parent="1">
          <mxGeometry x="3457.5" y="1075" width="10" height="10" as="geometry" />
        </mxCell>
        <mxCell id="lCDzhk1fqNKbVMKusiZE-265" value="Lorem" style="text;html=1;align=center;verticalAlign=middle;whiteSpace=wrap;rounded=0;" vertex="1" parent="1">
          <mxGeometry x="3463.5" y="1025" width="60" height="30" as="geometry" />
        </mxCell>
        <mxCell id="lCDzhk1fqNKbVMKusiZE-266" value="" style="ellipse;whiteSpace=wrap;html=1;aspect=fixed;" vertex="1" parent="1">
          <mxGeometry x="3457.5" y="1035" width="10" height="10" as="geometry" />
        </mxCell>
        <mxCell id="lCDzhk1fqNKbVMKusiZE-267" value="" style="ellipse;whiteSpace=wrap;html=1;aspect=fixed;" vertex="1" parent="1">
          <mxGeometry x="3457.5" y="1055" width="10" height="10" as="geometry" />
        </mxCell>
        <mxCell id="lCDzhk1fqNKbVMKusiZE-268" value="Lorem" style="text;html=1;align=center;verticalAlign=middle;whiteSpace=wrap;rounded=0;" vertex="1" parent="1">
          <mxGeometry x="3463.5" y="1045" width="60" height="30" as="geometry" />
        </mxCell>
        <mxCell id="lCDzhk1fqNKbVMKusiZE-269" value="" style="rounded=1;whiteSpace=wrap;html=1;" vertex="1" parent="1">
          <mxGeometry x="3432" y="1035" width="246" height="188" as="geometry" />
        </mxCell>
        <mxCell id="lCDzhk1fqNKbVMKusiZE-270" value="1" style="rounded=0;whiteSpace=wrap;html=1;fillColor=#ffe6cc;strokeColor=#d79b00;" vertex="1" parent="1">
          <mxGeometry x="3449.5" y="1061" width="31" height="26" as="geometry" />
        </mxCell>
        <mxCell id="lCDzhk1fqNKbVMKusiZE-271" value="Comensales" style="text;html=1;align=left;verticalAlign=middle;whiteSpace=wrap;rounded=0;" vertex="1" parent="1">
          <mxGeometry x="3449.5" y="1043" width="60" height="12" as="geometry" />
        </mxCell>
        <mxCell id="lCDzhk1fqNKbVMKusiZE-274" value="+" style="rounded=1;whiteSpace=wrap;html=1;fillColor=default;arcSize=50;" vertex="1" parent="1">
          <mxGeometry x="3629.5" y="1060" width="31" height="25" as="geometry" />
        </mxCell>
        <mxCell id="lCDzhk1fqNKbVMKusiZE-275" value="" style="shape=process;whiteSpace=wrap;html=1;backgroundOutline=1;" vertex="1" parent="1">
          <mxGeometry x="3452" y="1104" width="202.5" height="85" as="geometry" />
        </mxCell>
        <mxCell id="lCDzhk1fqNKbVMKusiZE-276" value="&lt;ul&gt;&lt;li&gt;Lorem&amp;nbsp; (+)&lt;/li&gt;&lt;li&gt;Lorem&amp;nbsp; (+)&lt;/li&gt;&lt;li&gt;Lorem&amp;nbsp; (+)&lt;/li&gt;&lt;/ul&gt;" style="text;html=1;align=left;verticalAlign=middle;whiteSpace=wrap;rounded=0;" vertex="1" parent="1">
          <mxGeometry x="3472.5" y="1119" width="145" height="30" as="geometry" />
        </mxCell>
        <mxCell id="lCDzhk1fqNKbVMKusiZE-277" value="" style="triangle;whiteSpace=wrap;html=1;" vertex="1" parent="1">
          <mxGeometry x="3578.5" y="1117" width="8" height="8.5" as="geometry" />
        </mxCell>
        <mxCell id="lCDzhk1fqNKbVMKusiZE-278" value="" style="triangle;whiteSpace=wrap;html=1;" vertex="1" parent="1">
          <mxGeometry x="3578.5" y="1132" width="8" height="8.5" as="geometry" />
        </mxCell>
        <mxCell id="lCDzhk1fqNKbVMKusiZE-279" value="" style="triangle;whiteSpace=wrap;html=1;" vertex="1" parent="1">
          <mxGeometry x="3578.5" y="1146" width="8" height="8.5" as="geometry" />
        </mxCell>
        <mxCell id="lCDzhk1fqNKbVMKusiZE-280" value="Mios" style="rounded=1;whiteSpace=wrap;html=1;fillColor=#fff2cc;strokeColor=#d6b656;" vertex="1" parent="1">
          <mxGeometry x="3449.5" y="804" width="47.5" height="15" as="geometry" />
        </mxCell>
        <mxCell id="lCDzhk1fqNKbVMKusiZE-281" value="Otros" style="rounded=1;whiteSpace=wrap;html=1;" vertex="1" parent="1">
          <mxGeometry x="3507" y="804" width="51" height="16" as="geometry" />
        </mxCell>
        <mxCell id="lCDzhk1fqNKbVMKusiZE-282" value="&amp;nbsp;Mesa" style="rounded=1;whiteSpace=wrap;html=1;align=left;" vertex="1" parent="1">
          <mxGeometry x="3584" y="805" width="55.5" height="15" as="geometry" />
        </mxCell>
        <mxCell id="lCDzhk1fqNKbVMKusiZE-283" value="&lt;b&gt;Mesa #4&lt;/b&gt;" style="rounded=0;whiteSpace=wrap;html=1;align=left;" vertex="1" parent="1">
          <mxGeometry x="3446.5" y="862" width="212.5" height="49" as="geometry" />
        </mxCell>
        <mxCell id="lCDzhk1fqNKbVMKusiZE-284" value="&lt;span style=&quot;line-height: 20%;&quot;&gt;&lt;font style=&quot;font-size: 6px;&quot;&gt;3 comensales, preparacion de cocina&lt;/font&gt;&lt;/span&gt;" style="text;html=1;align=left;verticalAlign=top;whiteSpace=wrap;rounded=0;spacing=0;" vertex="1" parent="1">
          <mxGeometry x="3449.5" y="888" width="187.5" height="21" as="geometry" />
        </mxCell>
        <mxCell id="lCDzhk1fqNKbVMKusiZE-285" value="Mesa #8" style="rounded=0;whiteSpace=wrap;html=1;align=left;fillColor=#fff2cc;strokeColor=#d6b656;" vertex="1" parent="1">
          <mxGeometry x="3446.5" y="928" width="212.5" height="49" as="geometry" />
        </mxCell>
        <mxCell id="lCDzhk1fqNKbVMKusiZE-286" value="&lt;span style=&quot;line-height: 20%;&quot;&gt;&lt;font style=&quot;font-size: 6px;&quot;&gt;1 comensal, preparacion en zona bar&lt;/font&gt;&lt;/span&gt;" style="text;html=1;align=left;verticalAlign=top;whiteSpace=wrap;rounded=0;spacing=0;" vertex="1" parent="1">
          <mxGeometry x="3449.5" y="954" width="187.5" height="21" as="geometry" />
        </mxCell>
        <mxCell id="lCDzhk1fqNKbVMKusiZE-287" value="Actualizar" style="rounded=1;whiteSpace=wrap;html=1;fillColor=#d5e8d4;strokeColor=#82b366;" vertex="1" parent="1">
          <mxGeometry x="3446.5" y="1200" width="69.5" height="14" as="geometry" />
        </mxCell>
        <mxCell id="lCDzhk1fqNKbVMKusiZE-288" value="" style="triangle;whiteSpace=wrap;html=1;" vertex="1" parent="1">
          <mxGeometry x="3626" y="807.5" width="8" height="11" as="geometry" />
        </mxCell>
        <mxCell id="lCDzhk1fqNKbVMKusiZE-289" value="-" style="rounded=1;whiteSpace=wrap;html=1;fillColor=default;arcSize=50;" vertex="1" parent="1">
          <mxGeometry x="3595" y="1060" width="31" height="25" as="geometry" />
        </mxCell>
        <mxCell id="lCDzhk1fqNKbVMKusiZE-290" value="Eliminar" style="rounded=1;whiteSpace=wrap;html=1;fillColor=#f8cecc;strokeColor=#b85450;" vertex="1" parent="1">
          <mxGeometry x="3521.5" y="1200" width="47.75" height="13.5" as="geometry" />
        </mxCell>
        <mxCell id="lCDzhk1fqNKbVMKusiZE-291" value="Tiempo estimado:" style="text;html=1;align=left;verticalAlign=middle;whiteSpace=wrap;rounded=0;" vertex="1" parent="1">
          <mxGeometry x="3499" y="872.5" width="98" height="30" as="geometry" />
        </mxCell>
        <mxCell id="lCDzhk1fqNKbVMKusiZE-293" value="&lt;font style=&quot;font-size: 14px;&quot;&gt;&lt;b&gt;20min&lt;/b&gt;&lt;/font&gt;" style="text;html=1;align=center;verticalAlign=middle;whiteSpace=wrap;rounded=0;" vertex="1" parent="1">
          <mxGeometry x="3592" y="871.5" width="60" height="30" as="geometry" />
        </mxCell>
        <mxCell id="lCDzhk1fqNKbVMKusiZE-295" value="Tiempo estimado:" style="text;html=1;align=left;verticalAlign=middle;whiteSpace=wrap;rounded=0;" vertex="1" parent="1">
          <mxGeometry x="3499" y="938" width="98" height="30" as="geometry" />
        </mxCell>
        <mxCell id="lCDzhk1fqNKbVMKusiZE-298" value="&amp;nbsp;completado" style="rounded=1;whiteSpace=wrap;html=1;fillColor=#dae8fc;strokeColor=#6c8ebf;" vertex="1" parent="1">
          <mxGeometry x="3585.5" y="1200" width="73" height="13.5" as="geometry" />
        </mxCell>
        <mxCell id="lCDzhk1fqNKbVMKusiZE-299" value="&lt;font style=&quot;font-size: 14px;&quot;&gt;&lt;b&gt;20min&lt;/b&gt;&lt;/font&gt;" style="text;html=1;align=center;verticalAlign=middle;whiteSpace=wrap;rounded=0;" vertex="1" parent="1">
          <mxGeometry x="3592.5" y="937.5" width="60" height="30" as="geometry" />
        </mxCell>
        <mxCell id="lCDzhk1fqNKbVMKusiZE-300" value="&lt;font style=&quot;font-size: 72px;&quot;&gt;Panel Worker+cocina&lt;/font&gt;" style="text;html=1;align=left;verticalAlign=middle;whiteSpace=wrap;rounded=0;fontStyle=1;fontSize=90;" vertex="1" parent="1">
          <mxGeometry x="4067" y="-290" width="790" height="113" as="geometry" />
        </mxCell>
        <mxCell id="lCDzhk1fqNKbVMKusiZE-301" value="" style="rounded=0;whiteSpace=wrap;html=1;" vertex="1" parent="1">
          <mxGeometry x="3971" y="-74.5" width="974" height="400.5" as="geometry" />
        </mxCell>
        <mxCell id="lCDzhk1fqNKbVMKusiZE-302" value="" style="rounded=1;whiteSpace=wrap;html=1;arcSize=8;" vertex="1" parent="1">
          <mxGeometry x="3971" y="-30" width="974" height="422" as="geometry" />
        </mxCell>
        <mxCell id="lCDzhk1fqNKbVMKusiZE-303" value="&lt;b&gt;&lt;font style=&quot;font-size: 18px;&quot;&gt;Comandera&lt;/font&gt;&lt;/b&gt;" style="text;html=1;align=center;verticalAlign=middle;whiteSpace=wrap;rounded=0;" vertex="1" parent="1">
          <mxGeometry x="4146" y="-70" width="60" height="30" as="geometry" />
        </mxCell>
        <mxCell id="lCDzhk1fqNKbVMKusiZE-304" value="&lt;strike&gt;Logo restaurante&lt;/strike&gt;" style="rounded=0;whiteSpace=wrap;html=1;" vertex="1" parent="1">
          <mxGeometry x="3998" y="-67" width="106" height="32" as="geometry" />
        </mxCell>
        <mxCell id="lCDzhk1fqNKbVMKusiZE-306" value="" style="rounded=0;whiteSpace=wrap;html=1;" vertex="1" parent="1">
          <mxGeometry x="3998" y="7" width="249" height="345" as="geometry" />
        </mxCell>
        <mxCell id="lCDzhk1fqNKbVMKusiZE-307" value="" style="rounded=0;whiteSpace=wrap;html=1;" vertex="1" parent="1">
          <mxGeometry x="4283" y="7" width="249" height="345" as="geometry" />
        </mxCell>
        <mxCell id="lCDzhk1fqNKbVMKusiZE-308" value="" style="rounded=0;whiteSpace=wrap;html=1;" vertex="1" parent="1">
          <mxGeometry x="4574" y="7" width="249" height="345" as="geometry" />
        </mxCell>
        <mxCell id="lCDzhk1fqNKbVMKusiZE-310" value="2" style="rounded=0;whiteSpace=wrap;html=1;" vertex="1" parent="1">
          <mxGeometry x="4016" y="76" width="20" height="19" as="geometry" />
        </mxCell>
        <mxCell id="lCDzhk1fqNKbVMKusiZE-311" value="&lt;font style=&quot;font-size: 15px;&quot;&gt;Sopa de mazorca&lt;/font&gt;" style="text;html=1;align=center;verticalAlign=middle;whiteSpace=wrap;rounded=0;" vertex="1" parent="1">
          <mxGeometry x="4041" y="69" width="126" height="30" as="geometry" />
        </mxCell>
        <mxCell id="lCDzhk1fqNKbVMKusiZE-312" value="&lt;span style=&quot;font-size: 15px;&quot;&gt;Frijol + Chuleta de cerdo&lt;/span&gt;" style="text;html=1;align=center;verticalAlign=middle;whiteSpace=wrap;rounded=0;" vertex="1" parent="1">
          <mxGeometry x="4041" y="111" width="172" height="30" as="geometry" />
        </mxCell>
        <mxCell id="lCDzhk1fqNKbVMKusiZE-313" value="2" style="rounded=0;whiteSpace=wrap;html=1;" vertex="1" parent="1">
          <mxGeometry x="4016" y="118" width="20" height="19" as="geometry" />
        </mxCell>
        <mxCell id="lCDzhk1fqNKbVMKusiZE-314" value="1" style="rounded=0;whiteSpace=wrap;html=1;" vertex="1" parent="1">
          <mxGeometry x="4016" y="154" width="20" height="19" as="geometry" />
        </mxCell>
        <mxCell id="lCDzhk1fqNKbVMKusiZE-315" value="&lt;span style=&quot;font-size: 15px;&quot;&gt;Punta de anca&amp;nbsp; &amp;nbsp; &amp;nbsp; &amp;nbsp; &amp;nbsp; &amp;nbsp; &amp;nbsp; &amp;nbsp;&amp;nbsp;&lt;/span&gt;" style="text;html=1;align=center;verticalAlign=middle;whiteSpace=wrap;rounded=0;" vertex="1" parent="1">
          <mxGeometry x="4041" y="147" width="172" height="30" as="geometry" />
        </mxCell>
        <mxCell id="lCDzhk1fqNKbVMKusiZE-316" value="&lt;i&gt;Termino 3/4&lt;/i&gt;" style="text;html=1;align=center;verticalAlign=middle;whiteSpace=wrap;rounded=0;" vertex="1" parent="1">
          <mxGeometry x="4041" y="173" width="68" height="16" as="geometry" />
        </mxCell>
        <mxCell id="lCDzhk1fqNKbVMKusiZE-317" value="&lt;span&gt;&lt;font style=&quot;font-size: 22px;&quot;&gt;Mesa 4&lt;/font&gt;&lt;/span&gt;" style="text;html=1;align=center;verticalAlign=middle;whiteSpace=wrap;rounded=0;fontStyle=1;fontColor=#747474;" vertex="1" parent="1">
          <mxGeometry x="4009" y="22.5" width="89" height="30" as="geometry" />
        </mxCell>
        <mxCell id="lCDzhk1fqNKbVMKusiZE-318" value="Marcar completado" style="rounded=0;whiteSpace=wrap;html=1;" vertex="1" parent="1">
          <mxGeometry x="4067" y="300" width="120" height="33" as="geometry" />
        </mxCell>
      </root>
    </mxGraphModel>
  </diagram>
</mxfile>
